<svg width="20" height="14" viewBox="0 0 20 14" fill="none" xmlns="http://www.w3.org/2000/svg">
<path d="M1.67188 6.1C1.17482 6.1 0.771875 6.50294 0.771875 7C0.771875 7.49706 1.17482 7.9 1.67188 7.9V6.1ZM19.716 7.6364C20.0675 7.28492 20.0675 6.71508 19.716 6.3636L13.9884 0.636039C13.6369 0.284567 13.0671 0.284567 12.7156 0.636039C12.3642 0.987511 12.3642 1.55736 12.7156 1.90883L17.8068 7L12.7156 12.0912C12.3642 12.4426 12.3642 13.0125 12.7156 13.364C13.0671 13.7154 13.6369 13.7154 13.9884 13.364L19.716 7.6364ZM1.67188 7.9H19.0796V6.1H1.67188V7.9Z" fill="#C82249"/>
</svg>
