<svg width="26" height="26" viewBox="0 0 26 26" fill="none" xmlns="http://www.w3.org/2000/svg">
<path d="M23.9912 0H1.91282C0.855202 0 0 0.834961 0 1.86728V24.0368C0 25.0691 0.855202 25.9091 1.91282 25.9091H23.9912C25.0488 25.9091 25.9091 25.0691 25.9091 24.0418V1.86728C25.9091 0.834961 25.0488 0 23.9912 0ZM7.6867 22.0784H3.84082V9.71085H7.6867V22.0784ZM5.76376 8.02575C4.52903 8.02575 3.53214 7.02885 3.53214 5.79918C3.53214 4.56951 4.52903 3.57262 5.76376 3.57262C6.99343 3.57262 7.99032 4.56951 7.99032 5.79918C7.99032 7.02379 6.99343 8.02575 5.76376 8.02575ZM22.0784 22.0784H18.2376V16.0667C18.2376 14.6346 18.2123 12.7876 16.2387 12.7876C14.2399 12.7876 13.9363 14.3512 13.9363 15.9655V22.0784H10.1005V9.71085H13.7844V11.401H13.835C14.3461 10.4294 15.6011 9.40217 17.4684 9.40217C21.3598 9.40217 22.0784 11.9627 22.0784 15.2924V22.0784Z" fill="#5D6468"/>
</svg>
