<svg width="16" height="23" viewBox="0 0 16 23" fill="none" xmlns="http://www.w3.org/2000/svg">
<path d="M7.7928 18.7548L7.91045 18.9059L8.02894 18.7555C9.20389 17.2647 10.591 15.323 11.6852 13.3526C12.7762 11.3879 13.5892 9.37198 13.5892 7.73926C13.5892 4.60494 11.0455 2.06122 7.91113 2.06122C4.77681 2.06122 2.23309 4.60494 2.23309 7.73926C2.23309 9.35582 3.0575 11.3776 4.15365 13.3485C5.25325 15.3256 6.64021 17.2753 7.7928 18.7548ZM7.91113 21.8863C7.85645 21.8242 7.78268 21.7397 7.69223 21.6347C7.48145 21.3901 7.18009 21.0338 6.81834 20.5881C6.09472 19.6965 5.13014 18.4477 4.16585 17.0185C3.20127 15.5888 2.23885 13.9814 1.51802 12.3724C0.796319 10.7615 0.321875 9.16002 0.321875 7.73926C0.321875 3.5434 3.71527 0.15 7.91113 0.15C12.107 0.15 15.5004 3.5434 15.5004 7.73926C15.5004 9.16002 15.0259 10.7615 14.3042 12.3724C13.5834 13.9814 12.621 15.5888 11.6564 17.0185C10.6921 18.4477 9.72755 19.6965 9.00392 20.5881C8.64218 21.0338 8.34082 21.3901 8.13004 21.6347C8.03958 21.7397 7.96582 21.8242 7.91113 21.8863Z" fill="#9EA2A4" stroke="white" stroke-width="0.3"/>
<path d="M7.91148 10.5046C9.43801 10.5046 10.6755 9.26711 10.6755 7.74058C10.6755 6.21406 9.43801 4.97656 7.91148 4.97656C6.38496 4.97656 5.14746 6.21406 5.14746 7.74058C5.14746 9.26711 6.38496 10.5046 7.91148 10.5046Z" fill="#9EA2A4"/>
</svg>
