<svg xmlns="http://www.w3.org/2000/svg" width="16" height="23" fill="#9ea2a4" xmlns:v="https://vecta.io/nano"><path d="M7.793 18.755l.118.151.118-.15c1.175-1.491 2.562-3.433 3.656-5.403 1.091-1.965 1.904-3.981 1.904-5.613a5.68 5.68 0 0 0-5.678-5.678 5.68 5.68 0 0 0-5.678 5.678c0 1.617.824 3.638 1.921 5.609 1.1 1.977 2.487 3.927 3.639 5.406zm.118 3.131l-.219-.252-.874-1.047-2.652-3.57c-.965-1.43-1.927-3.037-2.648-4.646S.322 9.16.322 7.739C.322 3.543 3.715.15 7.911.15S15.5 3.543 15.5 7.739c0 1.421-.475 3.022-1.196 4.633s-1.683 3.216-2.648 4.646-1.929 2.678-2.652 3.57l-.874 1.047-.219.252z" stroke="#fff" stroke-width=".3"/><path d="M7.911 10.505c1.527 0 2.764-1.237 2.764-2.764S9.438 4.977 7.911 4.977 5.147 6.214 5.147 7.741s1.238 2.764 2.764 2.764z"/></svg>