<svg width="32" height="32" viewBox="0 0 32 32" fill="none" xmlns="http://www.w3.org/2000/svg">
<rect width="32" height="32" rx="2" fill="#C82249"/>
<path d="M2.92102 12.6164L2.92654 16.6861L2.0063 16.6875L2.00078 12.6179L2.92102 12.6164Z" fill="white"/>
<path d="M5.31108 13.4127C5.66268 13.4121 5.94269 13.5354 6.15111 13.7824C6.36311 14.0255 6.4694 14.3616 6.46998 14.7906L6.47255 16.6805L5.55769 16.682L5.5553 14.9254C5.55501 14.709 5.50276 14.5409 5.39856 14.4213C5.29435 14.3016 5.15435 14.2419 4.97855 14.2422C4.80276 14.2425 4.66292 14.3026 4.55904 14.4226C4.45516 14.5426 4.40336 14.7108 4.40366 14.9272L4.40604 16.6838L3.4858 16.6852L3.48141 13.4504L4.40165 13.4489L4.40223 13.8779C4.49532 13.7348 4.62074 13.6225 4.77849 13.5411C4.93623 13.4558 5.11376 13.413 5.31108 13.4127Z" fill="white"/>
<path d="M8.50795 14.2657L8.01285 14.2664L8.01612 16.6781L7.09588 16.6795L7.09261 14.2679L6.75895 14.2684L6.75784 13.4452L7.09149 13.4447L7.09137 13.3519C7.09083 12.9538 7.19626 12.6522 7.40765 12.447C7.61904 12.238 7.92924 12.1332 8.33823 12.1325C8.4064 12.1324 8.45663 12.1343 8.48892 12.1381L8.49006 12.9787C8.31425 12.9674 8.19051 12.9946 8.11885 13.0604C8.04718 13.1262 8.01147 13.2442 8.0117 13.4142L8.01174 13.4432L8.50684 13.4424L8.50795 14.2657Z" fill="white"/>
<path d="M9.75259 13.9796C9.85998 13.8017 9.99433 13.6623 10.1556 13.5616C10.3169 13.457 10.4963 13.4045 10.6936 13.4042L10.695 14.4535L10.4421 14.4539C10.2125 14.4543 10.0403 14.5087 9.92567 14.6171C9.811 14.7216 9.75385 14.9072 9.75421 15.1739L9.75625 16.6754L8.83601 16.6768L8.83162 13.4419L9.75186 13.4405L9.75259 13.9796Z" fill="white"/>
<path d="M10.8451 15.0504C10.8446 14.718 10.9016 14.4261 11.0161 14.1747C11.1341 13.9233 11.2935 13.7299 11.4943 13.5943C11.695 13.4587 11.9191 13.3907 12.1667 13.3903C12.3784 13.39 12.5632 13.4361 12.7212 13.5286C12.8827 13.6211 13.0067 13.7426 13.093 13.8932L13.0924 13.4352L14.0126 13.4338L14.017 16.6686L13.0967 16.6701L13.0961 16.2121C13.0066 16.363 12.8812 16.4849 12.7199 16.5779C12.5622 16.6709 12.3775 16.7176 12.1658 16.7179C11.9218 16.7183 11.6993 16.651 11.4982 16.5161C11.2971 16.3773 11.1372 16.1823 11.0185 15.9313C10.9033 15.6764 10.8455 15.3828 10.8451 15.0504ZM13.0946 15.0527C13.0942 14.8053 13.0294 14.6102 12.9 14.4674C12.7743 14.3246 12.6199 14.2534 12.4369 14.2537C12.254 14.254 12.098 14.3257 11.969 14.4689C11.8436 14.6082 11.7811 14.8016 11.7815 15.0489C11.7818 15.2963 11.8448 15.4933 11.9706 15.64C12.1 15.7828 12.2561 15.854 12.4391 15.8537C12.6221 15.8534 12.7762 15.7817 12.9016 15.6385C13.0306 15.4953 13.0949 15.3 13.0946 15.0527Z" fill="white"/>
<path d="M15.9246 15.7381L16.5727 13.4298L17.5521 13.4282L17.0215 15.0465L16.4909 16.6648L15.3554 16.6665L14.2855 13.4334L15.2703 13.4318L15.9246 15.7381Z" fill="white"/>
<path d="M18.2942 13.0908C18.1327 13.0911 17.9999 13.041 17.8957 12.9407C17.7951 12.8365 17.7447 12.709 17.7445 12.5583C17.7443 12.4037 17.7944 12.2761 17.8947 12.1755C17.9986 12.0709 18.1313 12.0186 18.2927 12.0183C18.4506 12.0181 18.5798 12.07 18.6804 12.1742C18.7846 12.2745 18.8368 12.402 18.837 12.5566C18.8372 12.7073 18.7853 12.835 18.6814 12.9395C18.5811 13.0401 18.452 13.0906 18.2942 13.0908ZM18.7521 13.4263L18.7564 16.6612L17.8362 16.6626L17.8318 13.4278L18.7521 13.4263Z" fill="white"/>
<path d="M20.5374 16.7048C20.2755 16.7052 20.0422 16.6572 19.8376 16.5609C19.6329 16.4646 19.4713 16.3335 19.3527 16.1675C19.2341 15.9976 19.1674 15.8083 19.1528 15.5997L20.0623 15.5982C20.0732 15.7103 20.1218 15.801 20.208 15.8705C20.2942 15.9399 20.4 15.9745 20.5256 15.9743C20.6404 15.9742 20.7283 15.9508 20.7892 15.9043C20.8537 15.854 20.8859 15.7902 20.8858 15.7129C20.8857 15.6201 20.8408 15.5526 20.751 15.5102C20.6613 15.464 20.5159 15.4139 20.3149 15.3602C20.0996 15.3064 19.9201 15.2506 19.7765 15.1929C19.6329 15.1313 19.509 15.0368 19.4048 14.9094C19.3006 14.7782 19.2483 14.6024 19.248 14.3821C19.2478 14.1966 19.2942 14.0284 19.3873 13.8775C19.4839 13.7228 19.6237 13.6008 19.8065 13.5116C19.993 13.4224 20.2136 13.3776 20.4683 13.3772C20.845 13.3767 21.1411 13.4767 21.3566 13.6773C21.5758 13.8779 21.7017 14.1444 21.7344 14.4767L20.8841 14.4781C20.8696 14.366 20.8229 14.2772 20.7439 14.2116C20.6684 14.146 20.5679 14.1133 20.4424 14.1135C20.3347 14.1137 20.2523 14.137 20.1949 14.1835C20.1376 14.2261 20.1089 14.286 20.1091 14.3633C20.1092 14.4561 20.1541 14.5256 20.2439 14.5718C20.3372 14.6181 20.4808 14.6642 20.6746 14.7103C20.8971 14.7718 21.0784 14.8333 21.2184 14.8949C21.3584 14.9527 21.4805 15.0491 21.5847 15.1842C21.6925 15.3155 21.7484 15.4932 21.7523 15.7173C21.7525 15.9067 21.7025 16.0768 21.6023 16.2277C21.5056 16.3747 21.364 16.4909 21.1776 16.5762C20.9947 16.6615 20.7813 16.7044 20.5374 16.7048Z" fill="white"/>
<path d="M22.6669 13.0839C22.5054 13.0842 22.3726 13.0341 22.2684 12.9338C22.1678 12.8296 22.1174 12.7022 22.1172 12.5514C22.117 12.3968 22.1671 12.2692 22.2674 12.1686C22.3713 12.0641 22.504 12.0117 22.6654 12.0114C22.8233 12.0112 22.9525 12.0632 23.0531 12.1673C23.1573 12.2677 23.2095 12.3951 23.2097 12.5497C23.2099 12.7004 23.158 12.8281 23.0541 12.9326C22.9538 13.0332 22.8247 13.0837 22.6669 13.0839ZM23.1248 13.4194L23.1291 16.6543L22.2089 16.6558L22.2045 13.4209L23.1248 13.4194Z" fill="white"/>
<path d="M25.0554 16.6977C24.7612 16.6981 24.4956 16.6309 24.2586 16.496C24.0252 16.3611 23.8402 16.1682 23.7035 15.9172C23.5705 15.6662 23.5037 15.3725 23.5032 15.0363C23.5028 14.7039 23.5706 14.412 23.7065 14.1606C23.8425 13.9053 24.0288 13.7098 24.2654 13.5742C24.502 13.4385 24.7674 13.3705 25.0616 13.37C25.3558 13.3696 25.6214 13.4368 25.8584 13.5717C26.0953 13.7066 26.2822 13.9014 26.4188 14.1563C26.5555 14.4073 26.6241 14.699 26.6245 15.0314C26.625 15.3638 26.5554 15.6576 26.4158 15.9129C26.2798 16.1643 26.0918 16.3579 25.8516 16.4935C25.615 16.6291 25.3496 16.6972 25.0554 16.6977ZM25.0542 15.8397C25.23 15.8394 25.3788 15.7696 25.5006 15.6303C25.626 15.4909 25.6885 15.2918 25.6881 15.0328C25.6878 14.7739 25.6265 14.575 25.5044 14.436C25.3858 14.2971 25.2386 14.2277 25.0628 14.228C24.8834 14.2283 24.7346 14.2981 24.6164 14.4374C24.4982 14.5729 24.4393 14.772 24.4396 15.0348C24.44 15.2938 24.4976 15.4927 24.6126 15.6317C24.7312 15.7706 24.8784 15.8399 25.0542 15.8397Z" fill="white"/>
<path d="M28.8326 13.3757C29.1842 13.3751 29.4642 13.4984 29.6726 13.7454C29.8846 13.9885 29.9909 14.3246 29.9915 14.7536L29.994 16.6435L29.0792 16.645L29.0768 14.8884C29.0765 14.672 29.0243 14.5039 28.9201 14.3843C28.8158 14.2646 28.6758 14.2049 28.5001 14.2052C28.3243 14.2055 28.1844 14.2656 28.0805 14.3856C27.9767 14.5056 27.9249 14.6738 27.9252 14.8902L27.9275 16.6468L27.0073 16.6482L27.0029 13.4133L27.9231 13.4119L27.9237 13.8409C28.0168 13.6977 28.1422 13.5855 28.3 13.5041C28.4577 13.4188 28.6353 13.376 28.8326 13.3757Z" fill="white"/>
<path d="M4.16251 17.5918L4.16342 18.2638L2.86109 18.2659L2.86208 18.9919L3.83655 18.9903L3.83743 19.6428L2.86296 19.6443L2.86485 21.0374L2.08618 21.0386L2.08152 17.5951L4.16251 17.5918Z" fill="#5D6468"/>
<path d="M5.64203 21.0723C5.3931 21.0727 5.16838 21.0158 4.96787 20.9017C4.77039 20.7875 4.61383 20.6242 4.49818 20.4119C4.38557 20.1995 4.32907 19.951 4.32869 19.6665C4.32831 19.3853 4.38565 19.1383 4.50072 18.9255C4.61578 18.7095 4.77342 18.5441 4.97362 18.4293C5.17383 18.3146 5.39839 18.257 5.64732 18.2566C5.89625 18.2562 6.12098 18.3131 6.32149 18.4272C6.522 18.5414 6.68008 18.7063 6.79574 18.9219C6.91138 19.1343 6.9694 19.3811 6.96978 19.6624C6.97016 19.9436 6.9113 20.1922 6.7932 20.4082C6.67813 20.621 6.51897 20.7848 6.31573 20.8995C6.11553 21.0143 5.89096 21.0719 5.64203 21.0723ZM5.64105 20.3463C5.7898 20.3461 5.9157 20.287 6.01876 20.1691C6.12485 20.0512 6.17775 19.8827 6.17745 19.6636C6.17715 19.4445 6.12532 19.2762 6.02194 19.1586C5.9216 19.041 5.79706 18.9823 5.64831 18.9826C5.49652 18.9828 5.37062 19.0419 5.2706 19.1598C5.17057 19.2744 5.12071 19.4429 5.12101 19.6653C5.12131 19.8844 5.17011 20.0527 5.26741 20.1703C5.36775 20.2879 5.4923 20.3465 5.64105 20.3463Z" fill="#5D6468"/>
<path d="M9.79898 18.2893L9.80269 21.0265L9.02403 21.0277L9.02352 20.6549C8.94476 20.776 8.83712 20.8743 8.70061 20.9497C8.56714 21.0219 8.41844 21.0581 8.25451 21.0584C8.06022 21.0587 7.88864 21.0132 7.73976 20.9218C7.59088 20.8272 7.47534 20.6917 7.39314 20.5152C7.31093 20.3388 7.26967 20.1312 7.26935 19.8924L7.26718 18.2933L8.04129 18.2921L8.04331 19.7784C8.04355 19.9615 8.08777 20.1037 8.17594 20.205C8.26411 20.3062 8.38258 20.3567 8.53133 20.3565C8.68311 20.3562 8.80296 20.3053 8.89086 20.2038C8.97875 20.1023 9.02258 19.96 9.02233 19.7769L9.02032 18.2905L9.79898 18.2893Z" fill="#5D6468"/>
<path d="M11.8154 18.2567C12.1129 18.2562 12.3498 18.3605 12.5262 18.5695C12.7056 18.7753 12.7955 19.0596 12.796 19.4226L12.7982 21.0218L12.0241 21.023L12.0221 19.5367C12.0218 19.3535 11.9776 19.2114 11.8894 19.1101C11.8012 19.0089 11.6828 18.9584 11.534 18.9586C11.3853 18.9588 11.267 19.0097 11.1791 19.1112C11.0912 19.2127 11.0473 19.3551 11.0476 19.5382L11.0496 21.0245L10.2709 21.0258L10.2672 18.2886L11.0459 18.2873L11.0464 18.6503C11.1251 18.5292 11.2313 18.4342 11.3647 18.3653C11.4982 18.2932 11.6484 18.257 11.8154 18.2567Z" fill="#5D6468"/>
<path d="M13.0915 19.6478C13.0911 19.3666 13.1394 19.1196 13.2362 18.9069C13.3361 18.6942 13.471 18.5304 13.6408 18.4157C13.8107 18.301 14.0003 18.2434 14.2098 18.2431C14.3768 18.2429 14.5286 18.2802 14.6653 18.3552C14.8051 18.4302 14.9145 18.5314 14.9936 18.6588L14.9919 17.3884L15.7705 17.3871L15.7755 21.0171L14.9968 21.0183L14.9963 20.6259C14.9236 20.7568 14.819 20.8616 14.6825 20.9403C14.549 21.019 14.3927 21.0585 14.2136 21.0588C14.0042 21.0591 13.8143 21.0022 13.6442 20.888C13.474 20.7705 13.3387 20.6056 13.2382 20.3932C13.1408 20.1775 13.0919 19.9291 13.0915 19.6478ZM14.9949 19.6497C14.9947 19.4404 14.9398 19.2754 14.8303 19.1545C14.7239 19.0337 14.5933 18.9734 14.4385 18.9737C14.2837 18.9739 14.1517 19.0346 14.0426 19.1558C13.9365 19.2737 13.8836 19.4373 13.8838 19.6466C13.8841 19.8559 13.9375 20.0226 14.0439 20.1467C14.1534 20.2675 14.2855 20.3278 14.4403 20.3275C14.5951 20.3273 14.7256 20.2666 14.8317 20.1454C14.9408 20.0243 14.9952 19.859 14.9949 19.6497Z" fill="#5D6468"/>
<path d="M16.091 19.6431C16.0906 19.3619 16.1389 19.1149 16.2357 18.9022C16.3356 18.6894 16.4705 18.5257 16.6403 18.411C16.8102 18.2963 16.9998 18.2387 17.2093 18.2384C17.3884 18.2381 17.5448 18.2771 17.6785 18.3554C17.8152 18.4337 17.9201 18.5365 17.9931 18.6639L17.9926 18.2764L18.7713 18.2752L18.775 21.0124L17.9963 21.0136L17.9958 20.6261C17.9201 20.7537 17.8139 20.8569 17.6774 20.9356C17.544 21.0143 17.3877 21.0538 17.2086 21.0541C17.0021 21.0544 16.8139 20.9975 16.6437 20.8833C16.4735 20.7658 16.3382 20.6009 16.2378 20.3885C16.1403 20.1728 16.0914 19.9243 16.091 19.6431ZM17.9944 19.645C17.9942 19.4357 17.9393 19.2706 17.8298 19.1498C17.7234 19.029 17.5928 18.9687 17.438 18.9689C17.2832 18.9692 17.1512 19.0299 17.0421 19.1511C16.936 19.269 16.8831 19.4326 16.8834 19.6418C16.8836 19.8511 16.937 20.0178 17.0434 20.1419C17.1529 20.2628 17.285 20.3231 17.4398 20.3228C17.5946 20.3226 17.7251 20.2619 17.8312 20.1407C17.9403 20.0195 17.9947 19.8543 17.9944 19.645Z" fill="#5D6468"/>
<path d="M20.6624 20.2981L20.6634 21.0094L20.2672 21.01C19.9849 21.0105 19.7647 20.9372 19.6067 20.7903C19.4486 20.6401 19.3693 20.3966 19.3689 20.0598L19.3674 18.9708L19.0578 18.9713L19.0568 18.2747L19.3665 18.2742L19.3656 17.6071L20.1442 17.6059L20.1451 18.273L20.6551 18.2722L20.6561 18.9688L20.1461 18.9696L20.1476 20.0684C20.1477 20.1501 20.166 20.209 20.2024 20.2449C20.2389 20.2808 20.2997 20.2987 20.3847 20.2986L20.6624 20.2981Z" fill="#5D6468"/>
<path d="M21.3936 17.9865C21.257 17.9868 21.1446 17.9444 21.0564 17.8595C20.9713 17.7714 20.9287 17.6635 20.9285 17.536C20.9283 17.4052 20.9707 17.2972 21.0555 17.212C21.1435 17.1236 21.2557 17.0793 21.3923 17.0791C21.5259 17.0788 21.6353 17.1228 21.7204 17.211C21.8085 17.2959 21.8527 17.4037 21.8529 17.5345C21.853 17.6621 21.8092 17.7701 21.7213 17.8585C21.6364 17.9437 21.5271 17.9863 21.3936 17.9865ZM21.781 18.2704L21.7847 21.0076L21.0061 21.0089L21.0023 18.2717L21.781 18.2704Z" fill="#5D6468"/>
<path d="M23.4146 21.0443C23.1657 21.0447 22.941 20.9878 22.7404 20.8737C22.543 20.7595 22.3864 20.5963 22.2708 20.3839C22.1581 20.1715 22.1016 19.9231 22.1013 19.6385C22.1009 19.3573 22.1582 19.1103 22.2733 18.8976C22.3884 18.6815 22.546 18.5161 22.7462 18.4014C22.9464 18.2866 23.171 18.229 23.4199 18.2286C23.6688 18.2282 23.8935 18.2851 24.0941 18.3993C24.2946 18.5134 24.4527 18.6783 24.5683 18.894C24.684 19.1063 24.742 19.3531 24.7423 19.6344C24.7427 19.9156 24.6839 20.1643 24.5658 20.3803C24.4507 20.593 24.2915 20.7568 24.0883 20.8716C23.8881 20.9863 23.6635 21.0439 23.4146 21.0443ZM23.4136 20.3183C23.5624 20.3181 23.6883 20.259 23.7913 20.1411C23.8974 20.0232 23.9503 19.8547 23.95 19.6356C23.9497 19.4165 23.8979 19.2482 23.7945 19.1306C23.6942 19.0131 23.5696 18.9544 23.4209 18.9546C23.2691 18.9549 23.1432 19.0139 23.0432 19.1318C22.9431 19.2464 22.8933 19.4149 22.8936 19.6373C22.8939 19.8564 22.9427 20.0247 23.04 20.1423C23.1403 20.2599 23.2649 20.3186 23.4136 20.3183Z" fill="#5D6468"/>
<path d="M26.6107 18.2334C26.9082 18.2329 27.1451 18.3372 27.3215 18.5462C27.5009 18.752 27.5908 19.0364 27.5913 19.3994L27.5935 20.9985L26.8194 20.9997L26.8174 19.5134C26.8171 19.3303 26.7729 19.1881 26.6847 19.0868C26.5965 18.9856 26.4781 18.9351 26.3293 18.9353C26.1806 18.9356 26.0623 18.9864 25.9744 19.088C25.8865 19.1895 25.8426 19.3318 25.8429 19.5149L25.8449 21.0013L25.0662 21.0025L25.0625 18.2653L25.8412 18.2641L25.8417 18.6271C25.9204 18.5059 26.0266 18.4109 26.16 18.342C26.2935 18.2699 26.4437 18.2337 26.6107 18.2334Z" fill="#5D6468"/>
</svg>
