<svg width="38" height="45" viewBox="0 0 38 45" fill="none" xmlns="http://www.w3.org/2000/svg">
<path d="M36.7682 22.1336L34.498 19.8634C33.251 18.6163 32.5644 16.9583 32.5644 15.1947C32.5644 10.8127 30.6337 6.69116 27.2676 3.88571C25.766 2.63461 24.0725 1.66291 22.2342 0.998232C20.4012 0.335993 18.4838 0 16.5345 0H16.1503C12.3989 0 8.76358 1.34451 5.91509 3.78635C2.20563 6.96596 0.078125 11.5916 0.078125 16.4772C0.078125 19.1863 0.746591 21.8845 2.01123 24.2803L5.64543 31.164C6.85294 33.4512 7.49082 36.0273 7.49082 38.614V43.4833C7.49082 43.9666 7.88285 44.3586 8.36613 44.3586C8.84941 44.3586 9.24117 43.9666 9.24117 43.4833V38.614C9.24117 35.7439 8.53291 32.8851 7.193 30.3468L3.55935 23.4632C2.42683 21.3184 1.82821 18.9025 1.82821 16.4772C1.82821 12.1028 3.73316 7.96176 7.05438 5.11543C9.58583 2.94542 12.8161 1.75036 16.1503 1.75036H16.5345C18.2802 1.75036 19.9975 2.05115 21.6393 2.64435C23.2857 3.23972 24.8022 4.10962 26.1472 5.2305C29.1132 7.70185 30.814 11.3339 30.814 15.1947C30.814 17.4256 31.6828 19.5233 33.2605 21.101L35.5307 23.3711C35.5499 23.3906 35.6008 23.4413 35.5629 23.533C35.525 23.6243 35.4532 23.6243 35.4259 23.6243H33.0753C32.592 23.6243 32.2002 24.0163 32.2002 24.4996V33.1932C32.2002 33.9209 31.9165 34.6056 31.4018 35.1203C30.8871 35.6353 30.2024 35.9188 29.4747 35.9188H28.3673C26.2604 35.9188 24.5463 37.6326 24.5463 39.7392V43.4833C24.5463 43.9666 24.9383 44.3586 25.4216 44.3586C25.9049 44.3586 26.2967 43.9666 26.2967 43.4833V39.7392C26.2967 38.5978 27.2253 37.6688 28.3673 37.6688H29.4747C30.67 37.6688 31.7941 37.2034 32.6394 36.3582C33.4849 35.5126 33.9503 34.3885 33.9503 33.1932V25.3746H35.4259C36.1964 25.3746 36.8846 24.9144 37.1798 24.2029C37.4749 23.4908 37.3132 22.6786 36.7682 22.1336Z" fill="#C82249"/>
<path d="M27.1655 17.8814C26.9995 17.6732 26.7464 17.5516 26.4805 17.5516H26.4561C25.7357 17.5516 25.1498 16.9655 25.1498 16.245V16.2004C25.1498 15.4802 25.7357 14.894 26.4561 14.894H26.5495C26.8087 14.894 27.0561 14.7784 27.2223 14.5789C27.3886 14.3796 27.4582 14.1156 27.4119 13.8606C27.4108 13.8544 27.4094 13.8484 27.4083 13.8422C26.9478 11.5831 25.8088 9.55225 24.1145 7.9684C24.1074 7.9619 24.1004 7.95568 24.0931 7.94918C23.899 7.77915 23.6382 7.70307 23.3835 7.74233C23.1271 7.78159 22.9002 7.9332 22.7659 8.15494C22.506 8.58461 22.0149 8.82964 21.5148 8.77738C21.3326 8.7587 21.1588 8.70184 20.998 8.60898L20.9573 8.5857C20.6555 8.41107 20.4391 8.12949 20.3492 7.79242C20.2588 7.45534 20.3051 7.10365 20.4797 6.8015C20.4827 6.79635 20.486 6.79094 20.489 6.78552C20.6111 6.56351 20.6311 6.29872 20.5436 6.06074C20.4565 5.82303 20.2694 5.63405 20.0328 5.54389C20.0195 5.53875 20.0062 5.53414 19.9932 5.52981C18.8824 5.16702 17.7233 4.98291 16.5475 4.98291C15.464 4.98291 14.391 5.13994 13.3589 5.4494C13.1115 5.52359 12.9087 5.70444 12.8063 5.94134C12.7043 6.17743 12.7116 6.4479 12.8256 6.67831C13.1301 7.29262 12.9027 8.04258 12.3082 8.38616L12.2667 8.40971C11.6559 8.76249 10.8841 8.57053 10.5096 7.97273C10.3745 7.75722 10.1509 7.60994 9.89909 7.57176C9.64161 7.53223 9.37872 7.60994 9.18405 7.78321C7.49515 9.2853 6.31958 11.2333 5.78405 13.4131C5.72232 13.6608 5.77187 13.9248 5.91997 14.133C6.06806 14.3414 6.3009 14.4755 6.5554 14.4985C6.55919 14.4987 6.56325 14.499 6.56731 14.4995C7.24147 14.5515 7.76969 15.1228 7.76969 15.7997V15.8473C7.76969 16.5577 7.21358 17.1304 6.50396 17.1509C6.25081 17.1585 6.01202 17.2752 5.85093 17.4715C5.68577 17.6732 5.61863 17.9388 5.66845 18.1947C6.10055 20.4169 7.19165 22.4299 8.82369 24.0156C8.83452 24.0265 8.84562 24.0368 8.85699 24.0468C9.04651 24.2127 9.3002 24.2891 9.54983 24.2561C9.79972 24.2228 10.0239 24.0831 10.1639 23.8732C10.1666 23.8692 10.1693 23.8651 10.172 23.8608C10.5486 23.2744 11.3172 23.0881 11.9218 23.4373L11.9616 23.4604C12.2638 23.635 12.4801 23.9166 12.5702 24.2536C12.6607 24.5907 12.6141 24.9427 12.4408 25.2432L12.4267 25.267C12.4235 25.2727 12.42 25.2787 12.417 25.2846C12.2963 25.5042 12.2751 25.7665 12.3599 26.0024C12.4441 26.2385 12.6268 26.4277 12.8594 26.5211C12.8716 26.526 12.8838 26.5303 12.8962 26.5346C14.0688 26.9437 15.2977 27.1514 16.548 27.1514C17.5896 27.1514 18.6219 27.0066 19.6136 26.7212C19.87 26.6481 20.0799 26.4613 20.1822 26.2154C20.2845 25.9696 20.2697 25.6894 20.141 25.4557C20.1383 25.4511 20.1356 25.446 20.1329 25.4411C19.7745 24.8184 19.9894 24.0197 20.6113 23.6604L20.6514 23.6374C20.9535 23.4628 21.3055 23.4165 21.6426 23.5066C21.9799 23.5971 22.2615 23.8134 22.4361 24.1156L22.4887 24.2065C22.4925 24.2127 22.4957 24.2192 22.4995 24.2252C22.6343 24.4456 22.8604 24.5956 23.1152 24.6348C23.3694 24.6736 23.6293 24.5983 23.8234 24.4293C25.5846 22.8959 26.7984 20.8905 27.3352 18.6222C27.3943 18.3631 27.3317 18.0896 27.1655 17.8814ZM23.3318 22.4792C22.9814 22.1686 22.5612 21.9412 22.0958 21.8167C21.3069 21.6052 20.4833 21.7135 19.7761 22.1218L19.7363 22.1448C18.6184 22.7903 18.0623 24.0419 18.2431 25.2475C17.6859 25.3499 17.1187 25.4016 16.5475 25.4016C15.7913 25.4016 15.0446 25.3117 14.3184 25.1333C14.3972 24.696 14.3794 24.2428 14.2608 23.8009C14.0493 23.0123 13.5436 22.353 12.8364 21.9445L12.7963 21.922C11.7077 21.293 10.3916 21.4065 9.44018 22.1183C8.58463 21.116 7.95623 19.954 7.58802 18.6923C8.72677 18.248 9.52004 17.1461 9.52004 15.8479V15.7999C9.52004 14.5775 8.78443 13.5024 7.72312 13.018C8.15035 11.778 8.83263 10.6477 9.73231 9.68925C10.6859 10.4387 12.0282 10.5689 13.1423 9.92561L13.1832 9.90178C14.2581 9.28124 14.8201 8.09186 14.6912 6.91819C15.9729 6.65963 17.3199 6.6737 18.5935 6.95853C18.5236 7.38197 18.5439 7.81895 18.6585 8.24564C18.8696 9.03459 19.3754 9.69331 20.0826 10.1016L20.1226 10.1249C20.4984 10.3417 20.9059 10.4741 21.335 10.5185C22.1337 10.6008 22.9232 10.3604 23.5367 9.88012C24.4226 10.8775 25.0778 12.0401 25.4679 13.3077C24.2658 13.7198 23.3994 14.861 23.3994 16.2006V16.2453C23.3994 17.5511 24.2225 18.6682 25.377 19.1052C24.9457 20.3641 24.2523 21.5083 23.3318 22.4792Z" fill="#C82249"/>
<path d="M16.633 10.5193C16.6192 10.5193 16.6046 10.5193 16.5908 10.5193C16.1075 10.5228 15.7187 10.9176 15.7222 11.4008C15.726 11.8819 16.117 12.2696 16.5973 12.2696H16.6041C17.5877 12.2615 18.5144 12.6384 19.2051 13.3291C20.6197 14.7434 20.6197 17.045 19.2051 18.4597C17.7905 19.874 15.4889 19.874 14.0745 18.4597C13.3963 17.7814 13.0189 16.8804 13.0118 15.9214C13.0086 15.4406 12.6174 15.0532 12.1371 15.0532C12.1346 15.0532 12.1327 15.0532 12.1303 15.0532C11.647 15.0564 11.2582 15.4514 11.2617 15.9347C11.2723 17.3558 11.8317 18.6922 12.8369 19.6975C13.8852 20.7458 15.2625 21.27 16.6398 21.2697C18.0168 21.2697 19.3943 20.7455 20.4427 19.6975C22.5396 17.6 22.5396 14.1884 20.4427 12.0915C19.4279 11.0765 18.0764 10.5193 16.633 10.5193Z" fill="#C82249"/>
<path d="M13.4969 13.7584C13.5362 13.7584 13.576 13.7556 13.6158 13.7502L13.648 13.7462C14.1272 13.6809 14.4627 13.2399 14.3977 12.7612C14.3322 12.2823 13.8909 11.9476 13.4125 12.0118L13.3803 12.0161C12.9013 12.0811 12.5661 12.5221 12.6311 13.0011C12.6909 13.44 13.0662 13.7584 13.4969 13.7584Z" fill="#C82249"/>
</svg>
