<svg width="45" height="45" viewBox="0 0 45 45" fill="none" xmlns="http://www.w3.org/2000/svg">
<path d="M20.0595 9.80863e-06C16.9068 -0.00311529 13.7982 0.74056 10.9882 2.17014C8.17827 3.59971 5.74689 5.67453 3.89318 8.22469C2.03948 10.7748 0.816168 13.7278 0.323432 16.8418C-0.169305 19.9557 0.0825454 23.1421 1.05836 26.14C2.03417 29.1379 3.70619 31.862 5.9375 34.0893C8.16882 36.3166 10.896 37.9837 13.8956 38.954C16.8952 39.9244 20.0821 40.1705 23.1951 39.6722C26.3082 39.1738 29.259 37.9451 31.8058 36.0868L39.3934 43.6833C39.8277 44.1158 40.4158 44.3586 41.0287 44.3586C41.6417 44.3586 42.2297 44.1158 42.6641 43.6833L43.7812 42.5669C44.2139 42.1327 44.4569 41.5446 44.4569 40.9316C44.4569 40.3185 44.2139 39.7305 43.7812 39.2962L36.1847 31.7079C38.3567 28.7326 39.6624 25.214 39.957 21.542C40.2516 17.8701 39.5237 14.1883 37.8538 10.9048C36.184 7.6213 33.6375 4.86434 30.4966 2.93954C27.3557 1.01474 23.7432 -0.00269576 20.0595 9.80863e-06ZM1.57655 19.9616C1.57655 16.306 2.66055 12.7325 4.69148 9.69301C6.72242 6.65351 9.60906 4.2845 12.9864 2.88557C16.3637 1.48664 20.08 1.12062 23.6653 1.83379C27.2507 2.54696 30.544 4.30729 33.1289 6.89217C35.7138 9.47706 37.4741 12.7704 38.1873 16.3557C38.9004 19.9411 38.5344 23.6574 37.1355 27.0347C35.7366 30.412 33.3676 33.2986 30.3281 35.3296C27.2885 37.3605 23.7151 38.4445 20.0595 38.4445C15.1592 38.439 10.4612 36.49 6.99613 33.0249C3.53109 29.5599 1.58203 24.8619 1.57655 19.9616ZM42.7351 41.5208L41.6187 42.6364C41.5411 42.7142 41.4489 42.776 41.3474 42.8181C41.2459 42.8602 41.1371 42.8819 41.0273 42.8819C40.9174 42.8819 40.8086 42.8602 40.7071 42.8181C40.6056 42.776 40.5134 42.7142 40.4358 42.6364L35.2894 37.4834L37.5813 35.1915L42.7373 40.3431C42.8924 40.5 42.9791 40.7118 42.9787 40.9324C42.9783 41.153 42.8907 41.3645 42.7351 41.5208ZM36.5322 34.1446L34.2403 36.4365L32.9717 35.1671C33.7959 34.4659 34.5623 33.6995 35.2635 32.8752L36.5322 34.1446Z" fill="#C82249"/>
<path d="M28.1916 17.0044C28.1938 16.2257 27.9494 15.4662 27.4933 14.835C27.0373 14.2037 26.393 13.7331 25.653 13.4907C24.9129 13.2483 24.1151 13.2464 23.3739 13.4854C22.6328 13.7245 21.9863 14.1921 21.5274 14.8212L19.1615 13.7307C19.4518 12.6582 19.3286 11.5158 18.8163 10.5298C18.304 9.5439 17.44 8.78638 16.3956 8.40738C15.3511 8.02838 14.2024 8.05556 13.177 8.48354C12.1517 8.91152 11.3245 9.70906 10.8594 10.7181C10.3943 11.7272 10.3253 12.8742 10.6659 13.9318C11.0066 14.9893 11.7321 15.8804 12.6987 16.4283C13.6653 16.9762 14.8025 17.141 15.8849 16.89C16.9672 16.6391 17.9159 15.9907 18.5427 15.0733L20.9086 16.1623C20.8395 16.4378 20.8025 16.7204 20.7984 17.0044C20.8023 17.5887 20.9465 18.1636 21.2191 18.6804L15.1707 23.5178C14.6632 23.1312 14.0432 22.9209 13.4052 22.919C12.7625 22.9153 12.1358 23.12 11.6191 23.5023C11.1024 23.8847 10.7235 24.4242 10.5391 25.0399C10.3547 25.6557 10.3747 26.3146 10.5962 26.918C10.8177 27.5215 11.2287 28.0369 11.7677 28.3871C12.3067 28.7374 12.9446 28.9036 13.586 28.8609C14.2273 28.8182 14.8376 28.5688 15.3254 28.1502C15.8131 27.7316 16.1522 27.1662 16.2917 26.5388C16.4312 25.9113 16.3637 25.2555 16.0993 24.6697L22.1454 19.8338C22.7459 20.336 23.4918 20.6322 24.2732 20.6788L24.6192 23.1311C23.5567 23.4681 22.6596 24.1918 22.1057 25.159C21.5518 26.1262 21.3815 27.2663 21.6285 28.3531C21.8755 29.44 22.5219 30.3944 23.4395 31.0271C24.3571 31.6599 25.4789 31.9248 26.5826 31.7693C27.6863 31.6139 28.6913 31.0495 29.3984 30.1879C30.1056 29.3263 30.4632 28.2305 30.4004 27.1177C30.3377 26.0049 29.8591 24.9563 29.0596 24.1797C28.2601 23.4031 27.198 22.9552 26.0838 22.9249L25.737 20.4703C26.4532 20.2156 27.0733 19.7461 27.5127 19.1257C27.952 18.5054 28.1891 17.7646 28.1916 17.0044ZM14.8839 15.5258C14.299 15.5258 13.7272 15.3523 13.2409 15.0274C12.7546 14.7024 12.3755 14.2406 12.1517 13.7002C11.9279 13.1598 11.8693 12.5652 11.9834 11.9916C12.0975 11.4179 12.3792 10.891 12.7928 10.4774C13.2063 10.0638 13.7333 9.78217 14.3069 9.66806C14.8806 9.55396 15.4752 9.61252 16.0156 9.83635C16.5559 10.0602 17.0178 10.4392 17.3427 10.9255C17.6677 11.4119 17.8411 11.9836 17.8411 12.5685C17.8411 13.3528 17.5296 14.105 16.975 14.6596C16.4204 15.2142 15.6682 15.5258 14.8839 15.5258ZM13.4052 27.3549C13.1128 27.3549 12.8269 27.2681 12.5837 27.1057C12.3406 26.9432 12.1511 26.7123 12.0391 26.4421C11.9272 26.1719 11.8979 25.8746 11.955 25.5878C12.0121 25.3009 12.1529 25.0375 12.3597 24.8307C12.5665 24.6239 12.8299 24.4831 13.1168 24.426C13.4036 24.3689 13.7009 24.3982 13.9711 24.5101C14.2413 24.6221 14.4722 24.8116 14.6347 25.0547C14.7971 25.2979 14.8839 25.5838 14.8839 25.8762C14.8839 26.2684 14.7281 26.6445 14.4508 26.9218C14.1735 27.1991 13.7974 27.3549 13.4052 27.3549ZM22.277 17.0044C22.277 16.5657 22.4071 16.1369 22.6508 15.7722C22.8945 15.4074 23.2409 15.1232 23.6462 14.9553C24.0515 14.7874 24.4974 14.7435 24.9277 14.8291C25.3579 14.9147 25.7531 15.1259 26.0633 15.4361C26.3735 15.7463 26.5847 16.1415 26.6703 16.5717C26.7559 17.002 26.712 17.4479 26.5441 17.8532C26.3762 18.2585 26.092 18.6049 25.7272 18.8486C25.3625 19.0923 24.9337 19.2224 24.495 19.2224C23.9067 19.2224 23.3426 18.9887 22.9267 18.5727C22.5107 18.1568 22.277 17.5927 22.277 17.0044ZM28.9309 27.3549C28.9309 27.9398 28.7574 28.5115 28.4325 28.9978C28.1075 29.4842 27.6457 29.8632 27.1053 30.087C26.5649 30.3108 25.9703 30.3694 25.3967 30.2553C24.823 30.1412 24.2961 29.8595 23.8825 29.446C23.4689 29.0324 23.1873 28.5054 23.0732 27.9318C22.9591 27.3581 23.0176 26.7635 23.2415 26.2232C23.4653 25.6828 23.8443 25.2209 24.3306 24.896C24.817 24.571 25.3887 24.3976 25.9736 24.3976C26.7579 24.3976 27.5101 24.7092 28.0647 25.2638C28.6193 25.8183 28.9309 26.5705 28.9309 27.3549Z" fill="#C82249"/>
</svg>
