<svg width="47" height="45" viewBox="0 0 47 45" fill="none" xmlns="http://www.w3.org/2000/svg">
<g clip-path="url(#clip0_1872_21610)">
<path d="M39.7961 33.4509C41.0615 32.4829 41.8806 30.9502 41.8806 29.2276C41.8806 26.3069 39.5267 23.9307 36.6332 23.9307C33.7397 23.9307 31.3858 26.3069 31.3858 29.2276C31.3858 30.9534 32.208 32.4888 33.4775 33.4564C31.6371 34.1586 30.0437 35.4606 28.9817 37.1776C28.2816 36.6341 27.5007 36.192 26.6605 35.8729C27.9258 34.905 28.745 33.3723 28.745 31.6497C28.745 28.7291 26.391 26.3528 23.4976 26.3528C20.6041 26.3528 18.25 28.7291 18.25 31.6497C18.25 33.3724 19.0692 34.905 20.3346 35.8729C19.603 36.1506 18.916 36.5213 18.2885 36.9714C17.2243 35.3393 15.6944 34.1185 13.9293 33.4503C15.1944 32.4823 16.0134 30.9499 16.0134 29.2276C16.0134 26.3069 13.6594 23.9307 10.7659 23.9307C7.87244 23.9307 5.51852 26.3069 5.51852 29.2276C5.51852 30.9502 6.33781 32.4829 7.60316 33.4509C4.18891 34.7466 1.75283 38.0765 1.75283 41.9702C1.75283 42.4265 2.1193 42.7964 2.5713 42.7964H14.6233C14.532 43.3148 14.4844 43.8481 14.4844 44.3924C14.4844 44.8487 14.8508 45.2186 15.3028 45.2186H31.6921C32.1441 45.2186 32.5106 44.8487 32.5106 44.3924C32.5106 43.8481 32.4628 43.3148 32.3716 42.7964H44.8278C45.2798 42.7964 45.6462 42.4265 45.6462 41.9702C45.6464 38.0765 43.2105 34.7466 39.7961 33.4509ZM33.0229 29.2276C33.0229 27.2179 34.6426 25.5831 36.6334 25.5831C38.6243 25.5831 40.2439 27.2179 40.2439 29.2276C40.2439 31.2372 38.6243 32.8721 36.6334 32.8721C34.6426 32.8721 33.0229 31.2372 33.0229 29.2276ZM19.8872 31.6497C19.8872 29.6401 21.5068 28.0052 23.4978 28.0052C25.4886 28.0052 27.1083 29.6401 27.1083 31.6497C27.1083 33.6584 25.49 35.2927 23.5004 35.2942H23.4978H23.4951C21.5054 35.2929 19.8872 33.6585 19.8872 31.6497ZM10.7662 25.5831C12.7571 25.5831 14.3767 27.2179 14.3767 29.2276C14.3767 31.2372 12.7571 32.8721 10.7662 32.8721C8.77542 32.8721 7.15577 31.2372 7.15577 29.2276C7.15577 27.2179 8.77542 25.5831 10.7662 25.5831ZM3.4352 41.1441C3.84362 37.4258 6.9756 34.5245 10.7662 34.5245C13.338 34.5245 15.6874 35.8645 17.034 38.0586C16.1905 38.9355 15.5201 39.9828 15.079 41.1439L3.4352 41.1441ZM16.1666 43.5662C16.5749 39.8485 19.7059 36.9477 23.4956 36.9467H23.4977H23.4997C27.2895 36.9477 30.4204 39.8486 30.8287 43.5662H16.1666ZM31.9165 41.1441C31.5193 40.0986 30.9364 39.1455 30.2085 38.3258C31.5131 35.9996 33.9772 34.5245 36.6334 34.5245C40.4242 34.5245 43.5562 37.4257 43.9645 41.1441H31.9165ZM46.9328 -7.45117H0.466909C0.0149081 -7.45117 -0.351562 -7.08124 -0.351562 -6.62498V-3.43804C-0.351562 -2.98178 0.0149081 -2.61185 0.466909 -2.61185H0.816397V21.8179C0.816397 22.2742 1.18287 22.6441 1.63487 22.6441H45.7647C46.2167 22.6441 46.5832 22.2742 46.5832 21.8179V-2.61185H46.9328C47.3848 -2.61185 47.7512 -2.98178 47.7512 -3.43804V-6.62498C47.7512 -7.08124 47.3848 -7.45117 46.9328 -7.45117ZM1.28538 -5.79879H46.1142V-4.26424H1.28538V-5.79879ZM44.9462 20.9918H2.45334V-2.61185H44.9462V20.9918ZM13.7959 11.6845H14.8081C15.0082 12.4142 15.295 13.1128 15.6654 13.7725L14.9493 14.4953C14.7958 14.6503 14.7095 14.8604 14.7095 15.0795C14.7095 15.2987 14.7958 15.5087 14.9493 15.6637L17.2865 18.0231C17.44 18.1781 17.6482 18.2651 17.8653 18.2651C18.0824 18.2651 18.2906 18.1781 18.444 18.0231L19.1603 17.3001C19.8138 17.6742 20.5059 17.9638 21.2286 18.1657V19.1874C21.2286 19.6436 21.595 20.0135 22.047 20.0135H25.3525C25.8045 20.0135 26.171 19.6436 26.171 19.1874V18.1656C26.894 17.9637 27.5859 17.6741 28.2393 17.3001L28.9554 18.023C29.2752 18.3456 29.7933 18.3457 30.1129 18.023L32.4502 15.6637C32.6037 15.5087 32.6899 15.2987 32.6899 15.0795C32.6899 14.8604 32.6037 14.6503 32.4502 14.4953L31.734 13.7723C32.1045 13.1126 32.3914 12.4141 32.5913 11.6845H33.6036C34.0556 11.6845 34.4221 11.3146 34.4221 10.8583V7.52161C34.4221 7.06535 34.0556 6.69542 33.6036 6.69542H32.5913C32.3912 5.96568 32.1044 5.26724 31.734 4.60763L32.4502 3.88471C32.6037 3.7297 32.6899 3.51964 32.6899 3.30049C32.6899 3.08134 32.6037 2.87128 32.4502 2.71627L30.1129 0.356868C29.7933 0.0344458 29.2751 0.0344458 28.9554 0.356868L28.2392 1.07989C27.5856 0.705935 26.8938 0.416353 26.171 0.214452V-0.807445C26.171 -1.26371 25.8045 -1.63364 25.3525 -1.63364H22.047C21.595 -1.63364 21.2286 -1.26371 21.2286 -0.807445V0.214452C20.5055 0.416353 19.8136 0.705935 19.1603 1.07989L18.444 0.356868C18.1244 0.0343428 17.6062 0.0343428 17.2866 0.356868L14.9493 2.71616C14.7958 2.87118 14.7095 3.08124 14.7095 3.30039C14.7095 3.51953 14.7958 3.72959 14.9493 3.88461L15.6655 4.60763C15.295 5.26745 15.0081 5.96579 14.8082 6.69542H13.7959C13.3439 6.69542 12.9775 7.06535 12.9775 7.52161V10.8583C12.9775 11.3146 13.3439 11.6845 13.7959 11.6845ZM14.6144 8.34781H15.4544C15.8447 8.34781 16.1807 8.06959 16.2571 7.68303C16.451 6.701 16.8295 5.77917 17.3822 4.94327C17.5987 4.61548 17.556 4.17904 17.2801 3.90041L16.6855 3.30028L17.8654 2.10943L18.46 2.70966C18.736 2.98819 19.1685 3.03115 19.4931 2.81262C20.3207 2.25505 21.2338 1.87283 22.2073 1.67702C22.59 1.59998 22.8657 1.26083 22.8657 0.866732V0.0187483H24.5343V0.866732C24.5343 1.26072 24.8099 1.59998 25.1927 1.67702C26.1658 1.87283 27.079 2.25494 27.9069 2.81262C28.2315 3.03146 28.664 2.98819 28.9399 2.70966L29.5345 2.10943L30.7143 3.30039L30.1198 3.90051C29.8438 4.17914 29.8011 4.61568 30.0177 4.94348C30.5701 5.77886 30.9486 6.70069 31.1428 7.68313C31.2191 8.06948 31.5551 8.34781 31.9454 8.34781H32.7855V10.0321H31.9454C31.5551 10.0321 31.219 10.3103 31.1427 10.6969C30.9487 11.679 30.5703 12.6008 30.0177 13.4366C29.801 13.7643 29.8438 14.2009 30.1198 14.4795L30.7143 15.0796L29.5345 16.2705L28.94 15.6704C28.664 15.3918 28.2315 15.3489 27.9069 15.5674C27.0793 16.125 26.1662 16.5071 25.1927 16.703C24.81 16.78 24.5343 17.1192 24.5343 17.5133V18.3612H22.8657V17.5134C22.8657 17.1194 22.5901 16.7801 22.2073 16.7031C21.2343 16.5073 20.3211 16.1252 19.493 15.5674C19.1684 15.3487 18.736 15.3919 18.46 15.6704L17.8655 16.2706L16.6856 15.0796L17.2802 14.4796C17.5562 14.201 17.5988 13.7644 17.3823 13.4366C16.8299 12.6012 16.4512 11.6793 16.2572 10.6968C16.1808 10.3104 15.8449 10.0321 15.4546 10.0321H14.6147L14.6144 8.34781ZM23.6997 15.2148C26.9907 15.2148 29.6682 12.5121 29.6682 9.19011C29.6682 5.86799 26.9908 3.1653 23.6997 3.1653C20.4087 3.1653 17.7313 5.86799 17.7313 9.19011C17.7312 12.5121 20.4087 15.2148 23.6997 15.2148ZM23.6997 4.81769C26.0881 4.81769 28.0313 6.77917 28.0313 9.19011C28.0313 11.601 26.0881 13.5624 23.6997 13.5624C21.3113 13.5624 19.3683 11.601 19.3683 9.19011C19.3683 6.77917 21.3113 4.81769 23.6997 4.81769ZM36.725 5.81914L38.677 3.56828C38.8325 3.3891 39.0569 3.28634 39.2928 3.28634C39.5288 3.28634 39.7532 3.3891 39.9086 3.56828L41.8607 5.81914C42.1585 6.16242 42.1241 6.68447 41.784 6.985C41.6287 7.12215 41.4365 7.18948 41.2452 7.18948C41.0174 7.18948 40.7909 7.09406 40.6291 6.90755L40.1113 6.31052V14.2675C40.1113 14.7237 39.7448 15.0937 39.2928 15.0937C38.8408 15.0937 38.4744 14.7237 38.4744 14.2675V6.31052L37.9566 6.90755C37.6589 7.25072 37.1418 7.28532 36.8016 6.985C36.4615 6.68447 36.4272 6.16242 36.725 5.81914ZM5.53898 5.81914L7.49103 3.56828C7.64644 3.3891 7.8709 3.28634 8.10683 3.28634C8.34275 3.28634 8.56722 3.3891 8.72263 3.56828L10.6747 5.81914C10.9725 6.16242 10.9381 6.68447 10.5979 6.985C10.4426 7.12215 10.2505 7.18948 10.0592 7.18948C9.83135 7.18948 9.60484 7.09406 9.44309 6.90755L8.9253 6.31052V14.2675C8.9253 14.7237 8.55883 15.0937 8.10683 15.0937C7.65483 15.0937 7.28836 14.7237 7.28836 14.2675V6.31052L6.77057 6.90755C6.47285 7.25072 5.95578 7.28532 5.61561 6.985C5.27553 6.68447 5.24116 6.16242 5.53898 5.81914Z" fill="#C82249"/>
</g>
<path d="M25.8369 0.894531H37.2451C37.7283 0.894544 38.1201 1.28643 38.1201 1.76953V13.5459C38.1201 14.029 37.7283 14.4209 37.2451 14.4209C36.762 14.4209 36.3702 14.029 36.3701 13.5459V3.88184L20.1074 20.1445C19.7658 20.4861 19.2117 20.4861 18.8701 20.1445L13.8203 15.0947L13.7842 15.0596L2.38574 26.458L1.14844 25.2207L13.166 13.2041C13.5076 12.8625 14.0617 12.8625 14.4033 13.2041L19.4883 18.2891L35.1328 2.64453H25.8369C25.3538 2.64441 24.9619 2.25264 24.9619 1.76953C24.9619 1.2865 25.3538 0.894651 25.8369 0.894531Z" fill="#C82249" stroke="#C82249" stroke-width="0.1"/>
<defs>
<clipPath id="clip0_1872_21610">
<rect width="45.5248" height="21.1743" fill="white" transform="translate(0.816406 23.8262)"/>
</clipPath>
</defs>
</svg>
