<svg width="58" height="58" viewBox="0 0 58 58" fill="none" xmlns="http://www.w3.org/2000/svg">
<mask id="path-1-outside-1_1872_21445" maskUnits="userSpaceOnUse" x="-0.460938" y="-0.900391" width="59" height="59" fill="black">
<rect fill="white" x="-0.460938" y="-0.900391" width="59" height="59"/>
<path d="M20.3595 13.5042C20.1955 14.009 20.3569 14.55 20.7706 14.8826L24.454 17.8431L23.2142 22.4033C23.0751 22.9153 23.2625 23.4478 23.6921 23.7603C24.1218 24.072 24.6859 24.0857 25.13 23.7952L29.0839 21.2069L33.0379 23.7953C33.2511 23.9348 33.4918 24.0041 33.7321 24.0041C33.9925 24.0041 34.2524 23.9226 34.4756 23.7603C34.9054 23.4482 35.0929 22.9153 34.9534 22.4033L33.7137 17.8432L37.3968 14.8828C37.8108 14.5503 37.9723 14.0092 37.8082 13.5042C37.6441 12.9991 37.1955 12.6562 36.6653 12.6306L31.9452 12.4005L30.2678 7.98263C30.0795 7.48634 29.6146 7.16556 29.0838 7.16556C28.5529 7.16556 28.0881 7.48623 27.8999 7.98252L26.2224 12.4006L21.5026 12.6306C20.9722 12.6562 20.5235 12.9991 20.3595 13.5042ZM26.6476 14.1658C27.1507 14.1413 27.5912 13.8212 27.7697 13.3504L29.0837 9.89005L30.3976 13.3508C30.5764 13.8214 31.0171 14.1413 31.5197 14.1658L35.2167 14.3461L32.3315 16.665C31.9389 16.9806 31.7708 17.4986 31.9029 17.9843L32.874 21.556L29.777 19.5286C29.5663 19.3908 29.3249 19.3219 29.0835 19.3219C28.8421 19.3219 28.6005 19.3909 28.3898 19.5287L25.293 21.556L26.2641 17.9845C26.3963 17.4984 26.228 16.9804 25.8353 16.665L22.9503 14.3462L26.6476 14.1658ZM28.1917 4.26501V0.991606C28.1917 0.499001 28.591 0.0996094 29.0837 0.0996094C29.5763 0.0996094 29.9757 0.499001 29.9757 0.991606V4.26501C29.9757 4.75762 29.5763 5.15701 29.0837 5.15701C28.591 5.15701 28.1917 4.75762 28.1917 4.26501ZM33.6238 9.54987C33.2942 9.18381 33.3238 8.61974 33.6898 8.29014L37.3375 5.00559C37.7037 4.67589 38.2677 4.70543 38.5974 5.0716C38.9269 5.43765 38.8974 6.00173 38.5313 6.33132L34.8835 9.61587C34.713 9.76941 34.4996 9.84501 34.2869 9.84501C34.043 9.84501 33.8 9.74555 33.6238 9.54987ZM19.57 5.0716C19.8995 4.70543 20.4635 4.67589 20.8298 5.00559L24.4776 8.29014C24.8437 8.61974 24.8732 9.18381 24.5436 9.54987C24.3674 9.74544 24.1244 9.84501 23.8804 9.84501C23.6678 9.84501 23.4544 9.76941 23.2838 9.61587L19.636 6.33132C19.2698 6.00173 19.2404 5.43765 19.57 5.0716ZM40.5273 14.8826L44.2107 17.8431L42.9709 22.4033C42.8318 22.9153 43.0192 23.4478 43.4488 23.7603C43.8782 24.072 44.4424 24.0856 44.8867 23.7952L48.8406 21.2069L52.7946 23.7953C53.0078 23.9348 53.2485 24.0041 53.4888 24.0041C53.7493 24.0041 54.0092 23.9226 54.2323 23.7603C54.6619 23.4484 54.8494 22.9158 54.7102 22.4033L53.4704 17.8432L57.1536 14.8828C57.5674 14.5504 57.7289 14.0093 57.5648 13.5042C57.4008 12.9991 56.9521 12.6562 56.422 12.6306L51.7019 12.4005L50.0246 7.98263C49.8363 7.48634 49.3714 7.16556 48.8406 7.16556C48.3096 7.16556 47.8448 7.48623 47.6565 7.98252L45.9792 12.4005L41.2594 12.6305C40.7289 12.6561 40.2802 12.9991 40.1162 13.5042C39.9521 14.0092 40.1135 14.5503 40.5273 14.8826ZM46.4042 14.1658C46.9074 14.1413 47.3481 13.8212 47.5267 13.3503L48.8405 9.88994L50.1542 13.3502C50.3329 13.8212 50.7736 14.1413 51.2765 14.1657L54.9735 14.346L52.0887 16.6647C51.6959 16.9802 51.5275 17.4982 51.6598 17.9841L52.6308 21.5559L49.5338 19.5285C49.3231 19.3907 49.0817 19.3218 48.8403 19.3218C48.5988 19.3218 48.3572 19.3908 48.1466 19.5286L45.0498 21.5559L46.0209 17.9844C46.153 17.4986 45.9849 16.9806 45.5922 16.6649L42.7071 14.346L46.4042 14.1658ZM1.01364 14.8826L4.69703 17.8431L3.45726 22.4033C3.31811 22.9153 3.50554 23.4478 3.93515 23.7603C4.36487 24.072 4.92895 24.0857 5.37305 23.7952L9.32693 21.2069L13.2809 23.7953C13.4941 23.9348 13.7348 24.0041 13.9751 24.0041C14.2356 24.0041 14.4955 23.9226 14.7186 23.7603C15.1482 23.4484 15.3358 22.9158 15.1965 22.4033L13.9567 17.8432L17.6399 14.8828C18.0536 14.5506 18.2151 14.0096 18.0511 13.5036C17.8868 12.9989 17.4381 12.6561 16.9083 12.6305L12.1882 12.4004L10.5109 7.98263C10.3226 7.48634 9.85778 7.16556 9.32693 7.16556C8.79597 7.16556 8.33113 7.48623 8.14281 7.98252L6.46552 12.4005L1.74574 12.6305C1.21534 12.6561 0.766666 12.9991 0.602762 13.5036C0.4383 14.0088 0.59964 14.5502 1.01364 14.8826ZM6.89056 14.1658C7.39375 14.1413 7.8344 13.8212 8.01302 13.3503L9.32682 9.88994L10.6405 13.3502C10.8192 13.8212 11.2599 14.1413 11.7629 14.1657L15.4599 14.346L12.575 16.6647C12.1822 16.9802 12.0139 17.4982 12.1461 17.9841L13.1171 21.5559L10.0201 19.5285C9.80939 19.3907 9.568 19.3218 9.3266 19.3218C9.08509 19.3218 8.84358 19.3908 8.63296 19.5286L5.53617 21.5559L6.50722 17.9844C6.63935 17.4986 6.47121 16.9806 6.07851 16.6649L3.19345 14.346L6.89056 14.1658ZM57.4872 47.4795C56.8595 45.4526 55.5741 43.6327 53.8673 42.3547C53.0503 41.7429 52.1605 41.2664 51.2219 40.929C52.5232 39.9076 53.3617 38.3221 53.3617 36.5434C53.3617 33.4698 50.8611 30.9693 47.7876 30.9693C44.714 30.9693 42.2134 33.4698 42.2134 36.5434C42.2134 38.32 43.0499 39.904 44.3486 40.9254C42.608 41.5467 41.066 42.6383 39.8851 44.1092C39.3331 43.337 38.6965 42.6199 37.9808 41.9726C36.5386 40.6684 34.8462 39.7106 33.0235 39.1445C34.9563 37.8632 36.2341 35.6692 36.2341 33.1815C36.2341 29.2389 33.0264 26.0313 29.0838 26.0313C25.1411 26.0313 21.9334 29.2389 21.9334 33.1815C21.9334 35.6692 23.2111 37.8632 25.1439 39.1445C23.3211 39.7105 21.6287 40.6684 20.1865 41.9726C19.4708 42.6199 18.8342 43.337 18.2824 44.109C17.1016 42.638 15.5595 41.5465 13.8188 40.9251C15.1174 39.9036 15.954 38.3197 15.954 36.543C15.954 33.4694 13.4534 30.9689 10.3799 30.9689C7.30634 30.9689 4.80574 33.4694 4.80574 36.543C4.80574 38.3217 5.64422 39.9073 6.94542 40.9286C6.00681 41.266 5.11704 41.7426 4.29986 42.3544C2.59314 43.6323 1.30766 45.4523 0.680031 47.479C0.390021 48.4152 0.550692 49.3652 1.13238 50.1544C1.71397 50.9434 2.57407 51.3778 3.55416 51.3778H15.8852V52.9876C15.8852 55.3035 17.7692 57.1875 20.0851 57.1875H38.0822C40.398 57.1875 42.2821 55.3035 42.2822 52.9876V51.3783H54.6132C55.5933 51.3783 56.4535 50.9437 57.0349 50.1549C57.6165 49.3657 57.7772 48.4155 57.4872 47.4795ZM47.7876 32.7533C49.8774 32.7533 51.5777 34.4535 51.5777 36.5434C51.5777 38.6333 49.8774 40.3336 47.7876 40.3336C45.6976 40.3336 43.9974 38.6333 43.9974 36.5434C43.9974 34.4535 45.6976 32.7533 47.7876 32.7533ZM23.7174 33.1815C23.7174 30.2226 26.1248 27.8153 29.0838 27.8153C32.0427 27.8153 34.4501 30.2226 34.4501 33.1815C34.4501 36.1396 32.0443 38.5462 29.0867 38.5478C29.0857 38.5478 29.0845 38.5478 29.0837 38.5478C29.0828 38.5478 29.0818 38.5478 29.0808 38.5478C26.1231 38.5461 23.7174 36.1395 23.7174 33.1815ZM10.3799 32.7528C12.4698 32.7528 14.17 34.4531 14.17 36.5429C14.17 38.6329 12.4698 40.3331 10.3799 40.3331C8.28999 40.3331 6.58973 38.6329 6.58973 36.5429C6.58973 34.4531 8.28999 32.7528 10.3799 32.7528ZM16.0011 49.5937H3.55427C3.14373 49.5937 2.81213 49.4262 2.5685 49.0958C2.32476 48.7653 2.26288 48.3989 2.3843 48.0067C3.47521 44.4839 6.68852 42.1171 10.3799 42.1171C13.1722 42.1171 15.7159 43.4663 17.2803 45.7501C16.6618 46.9516 16.2286 48.2467 16.0011 49.5937ZM40.4982 52.9875C40.4981 54.3196 39.4143 55.4034 38.0822 55.4034H20.0851C18.753 55.4034 17.6692 54.3196 17.6692 52.9875V50.5342C18.315 44.7153 23.2125 40.3332 29.0808 40.3318C29.0818 40.3318 29.0828 40.3319 29.0838 40.3319C29.0848 40.3319 29.0858 40.3318 29.0867 40.3318C34.9548 40.3333 39.8522 44.7153 40.4982 50.5342V52.9875ZM55.5989 49.0963C55.3553 49.4267 55.0238 49.5942 54.6132 49.5942H42.1665C41.9388 48.247 41.5056 46.952 40.8872 45.7503C42.4518 43.4666 44.9953 42.1176 47.7875 42.1176C51.4789 42.1176 54.6922 44.4845 55.7831 48.0073C55.9045 48.3992 55.8425 48.7656 55.5989 49.0963Z"/>
</mask>
<path d="M20.3595 13.5042C20.1955 14.009 20.3569 14.55 20.7706 14.8826L24.454 17.8431L23.2142 22.4033C23.0751 22.9153 23.2625 23.4478 23.6921 23.7603C24.1218 24.072 24.6859 24.0857 25.13 23.7952L29.0839 21.2069L33.0379 23.7953C33.2511 23.9348 33.4918 24.0041 33.7321 24.0041C33.9925 24.0041 34.2524 23.9226 34.4756 23.7603C34.9054 23.4482 35.0929 22.9153 34.9534 22.4033L33.7137 17.8432L37.3968 14.8828C37.8108 14.5503 37.9723 14.0092 37.8082 13.5042C37.6441 12.9991 37.1955 12.6562 36.6653 12.6306L31.9452 12.4005L30.2678 7.98263C30.0795 7.48634 29.6146 7.16556 29.0838 7.16556C28.5529 7.16556 28.0881 7.48623 27.8999 7.98252L26.2224 12.4006L21.5026 12.6306C20.9722 12.6562 20.5235 12.9991 20.3595 13.5042ZM26.6476 14.1658C27.1507 14.1413 27.5912 13.8212 27.7697 13.3504L29.0837 9.89005L30.3976 13.3508C30.5764 13.8214 31.0171 14.1413 31.5197 14.1658L35.2167 14.3461L32.3315 16.665C31.9389 16.9806 31.7708 17.4986 31.9029 17.9843L32.874 21.556L29.777 19.5286C29.5663 19.3908 29.3249 19.3219 29.0835 19.3219C28.8421 19.3219 28.6005 19.3909 28.3898 19.5287L25.293 21.556L26.2641 17.9845C26.3963 17.4984 26.228 16.9804 25.8353 16.665L22.9503 14.3462L26.6476 14.1658ZM28.1917 4.26501V0.991606C28.1917 0.499001 28.591 0.0996094 29.0837 0.0996094C29.5763 0.0996094 29.9757 0.499001 29.9757 0.991606V4.26501C29.9757 4.75762 29.5763 5.15701 29.0837 5.15701C28.591 5.15701 28.1917 4.75762 28.1917 4.26501ZM33.6238 9.54987C33.2942 9.18381 33.3238 8.61974 33.6898 8.29014L37.3375 5.00559C37.7037 4.67589 38.2677 4.70543 38.5974 5.0716C38.9269 5.43765 38.8974 6.00173 38.5313 6.33132L34.8835 9.61587C34.713 9.76941 34.4996 9.84501 34.2869 9.84501C34.043 9.84501 33.8 9.74555 33.6238 9.54987ZM19.57 5.0716C19.8995 4.70543 20.4635 4.67589 20.8298 5.00559L24.4776 8.29014C24.8437 8.61974 24.8732 9.18381 24.5436 9.54987C24.3674 9.74544 24.1244 9.84501 23.8804 9.84501C23.6678 9.84501 23.4544 9.76941 23.2838 9.61587L19.636 6.33132C19.2698 6.00173 19.2404 5.43765 19.57 5.0716ZM40.5273 14.8826L44.2107 17.8431L42.9709 22.4033C42.8318 22.9153 43.0192 23.4478 43.4488 23.7603C43.8782 24.072 44.4424 24.0856 44.8867 23.7952L48.8406 21.2069L52.7946 23.7953C53.0078 23.9348 53.2485 24.0041 53.4888 24.0041C53.7493 24.0041 54.0092 23.9226 54.2323 23.7603C54.6619 23.4484 54.8494 22.9158 54.7102 22.4033L53.4704 17.8432L57.1536 14.8828C57.5674 14.5504 57.7289 14.0093 57.5648 13.5042C57.4008 12.9991 56.9521 12.6562 56.422 12.6306L51.7019 12.4005L50.0246 7.98263C49.8363 7.48634 49.3714 7.16556 48.8406 7.16556C48.3096 7.16556 47.8448 7.48623 47.6565 7.98252L45.9792 12.4005L41.2594 12.6305C40.7289 12.6561 40.2802 12.9991 40.1162 13.5042C39.9521 14.0092 40.1135 14.5503 40.5273 14.8826ZM46.4042 14.1658C46.9074 14.1413 47.3481 13.8212 47.5267 13.3503L48.8405 9.88994L50.1542 13.3502C50.3329 13.8212 50.7736 14.1413 51.2765 14.1657L54.9735 14.346L52.0887 16.6647C51.6959 16.9802 51.5275 17.4982 51.6598 17.9841L52.6308 21.5559L49.5338 19.5285C49.3231 19.3907 49.0817 19.3218 48.8403 19.3218C48.5988 19.3218 48.3572 19.3908 48.1466 19.5286L45.0498 21.5559L46.0209 17.9844C46.153 17.4986 45.9849 16.9806 45.5922 16.6649L42.7071 14.346L46.4042 14.1658ZM1.01364 14.8826L4.69703 17.8431L3.45726 22.4033C3.31811 22.9153 3.50554 23.4478 3.93515 23.7603C4.36487 24.072 4.92895 24.0857 5.37305 23.7952L9.32693 21.2069L13.2809 23.7953C13.4941 23.9348 13.7348 24.0041 13.9751 24.0041C14.2356 24.0041 14.4955 23.9226 14.7186 23.7603C15.1482 23.4484 15.3358 22.9158 15.1965 22.4033L13.9567 17.8432L17.6399 14.8828C18.0536 14.5506 18.2151 14.0096 18.0511 13.5036C17.8868 12.9989 17.4381 12.6561 16.9083 12.6305L12.1882 12.4004L10.5109 7.98263C10.3226 7.48634 9.85778 7.16556 9.32693 7.16556C8.79597 7.16556 8.33113 7.48623 8.14281 7.98252L6.46552 12.4005L1.74574 12.6305C1.21534 12.6561 0.766666 12.9991 0.602762 13.5036C0.4383 14.0088 0.59964 14.5502 1.01364 14.8826ZM6.89056 14.1658C7.39375 14.1413 7.8344 13.8212 8.01302 13.3503L9.32682 9.88994L10.6405 13.3502C10.8192 13.8212 11.2599 14.1413 11.7629 14.1657L15.4599 14.346L12.575 16.6647C12.1822 16.9802 12.0139 17.4982 12.1461 17.9841L13.1171 21.5559L10.0201 19.5285C9.80939 19.3907 9.568 19.3218 9.3266 19.3218C9.08509 19.3218 8.84358 19.3908 8.63296 19.5286L5.53617 21.5559L6.50722 17.9844C6.63935 17.4986 6.47121 16.9806 6.07851 16.6649L3.19345 14.346L6.89056 14.1658ZM57.4872 47.4795C56.8595 45.4526 55.5741 43.6327 53.8673 42.3547C53.0503 41.7429 52.1605 41.2664 51.2219 40.929C52.5232 39.9076 53.3617 38.3221 53.3617 36.5434C53.3617 33.4698 50.8611 30.9693 47.7876 30.9693C44.714 30.9693 42.2134 33.4698 42.2134 36.5434C42.2134 38.32 43.0499 39.904 44.3486 40.9254C42.608 41.5467 41.066 42.6383 39.8851 44.1092C39.3331 43.337 38.6965 42.6199 37.9808 41.9726C36.5386 40.6684 34.8462 39.7106 33.0235 39.1445C34.9563 37.8632 36.2341 35.6692 36.2341 33.1815C36.2341 29.2389 33.0264 26.0313 29.0838 26.0313C25.1411 26.0313 21.9334 29.2389 21.9334 33.1815C21.9334 35.6692 23.2111 37.8632 25.1439 39.1445C23.3211 39.7105 21.6287 40.6684 20.1865 41.9726C19.4708 42.6199 18.8342 43.337 18.2824 44.109C17.1016 42.638 15.5595 41.5465 13.8188 40.9251C15.1174 39.9036 15.954 38.3197 15.954 36.543C15.954 33.4694 13.4534 30.9689 10.3799 30.9689C7.30634 30.9689 4.80574 33.4694 4.80574 36.543C4.80574 38.3217 5.64422 39.9073 6.94542 40.9286C6.00681 41.266 5.11704 41.7426 4.29986 42.3544C2.59314 43.6323 1.30766 45.4523 0.680031 47.479C0.390021 48.4152 0.550692 49.3652 1.13238 50.1544C1.71397 50.9434 2.57407 51.3778 3.55416 51.3778H15.8852V52.9876C15.8852 55.3035 17.7692 57.1875 20.0851 57.1875H38.0822C40.398 57.1875 42.2821 55.3035 42.2822 52.9876V51.3783H54.6132C55.5933 51.3783 56.4535 50.9437 57.0349 50.1549C57.6165 49.3657 57.7772 48.4155 57.4872 47.4795ZM47.7876 32.7533C49.8774 32.7533 51.5777 34.4535 51.5777 36.5434C51.5777 38.6333 49.8774 40.3336 47.7876 40.3336C45.6976 40.3336 43.9974 38.6333 43.9974 36.5434C43.9974 34.4535 45.6976 32.7533 47.7876 32.7533ZM23.7174 33.1815C23.7174 30.2226 26.1248 27.8153 29.0838 27.8153C32.0427 27.8153 34.4501 30.2226 34.4501 33.1815C34.4501 36.1396 32.0443 38.5462 29.0867 38.5478C29.0857 38.5478 29.0845 38.5478 29.0837 38.5478C29.0828 38.5478 29.0818 38.5478 29.0808 38.5478C26.1231 38.5461 23.7174 36.1395 23.7174 33.1815ZM10.3799 32.7528C12.4698 32.7528 14.17 34.4531 14.17 36.5429C14.17 38.6329 12.4698 40.3331 10.3799 40.3331C8.28999 40.3331 6.58973 38.6329 6.58973 36.5429C6.58973 34.4531 8.28999 32.7528 10.3799 32.7528ZM16.0011 49.5937H3.55427C3.14373 49.5937 2.81213 49.4262 2.5685 49.0958C2.32476 48.7653 2.26288 48.3989 2.3843 48.0067C3.47521 44.4839 6.68852 42.1171 10.3799 42.1171C13.1722 42.1171 15.7159 43.4663 17.2803 45.7501C16.6618 46.9516 16.2286 48.2467 16.0011 49.5937ZM40.4982 52.9875C40.4981 54.3196 39.4143 55.4034 38.0822 55.4034H20.0851C18.753 55.4034 17.6692 54.3196 17.6692 52.9875V50.5342C18.315 44.7153 23.2125 40.3332 29.0808 40.3318C29.0818 40.3318 29.0828 40.3319 29.0838 40.3319C29.0848 40.3319 29.0858 40.3318 29.0867 40.3318C34.9548 40.3333 39.8522 44.7153 40.4982 50.5342V52.9875ZM55.5989 49.0963C55.3553 49.4267 55.0238 49.5942 54.6132 49.5942H42.1665C41.9388 48.247 41.5056 46.952 40.8872 45.7503C42.4518 43.4666 44.9953 42.1176 47.7875 42.1176C51.4789 42.1176 54.6922 44.4845 55.7831 48.0073C55.9045 48.3992 55.8425 48.7656 55.5989 49.0963Z" fill="#C82249"/>
<path d="M20.3595 13.5042C20.1955 14.009 20.3569 14.55 20.7706 14.8826L24.454 17.8431L23.2142 22.4033C23.0751 22.9153 23.2625 23.4478 23.6921 23.7603C24.1218 24.072 24.6859 24.0857 25.13 23.7952L29.0839 21.2069L33.0379 23.7953C33.2511 23.9348 33.4918 24.0041 33.7321 24.0041C33.9925 24.0041 34.2524 23.9226 34.4756 23.7603C34.9054 23.4482 35.0929 22.9153 34.9534 22.4033L33.7137 17.8432L37.3968 14.8828C37.8108 14.5503 37.9723 14.0092 37.8082 13.5042C37.6441 12.9991 37.1955 12.6562 36.6653 12.6306L31.9452 12.4005L30.2678 7.98263C30.0795 7.48634 29.6146 7.16556 29.0838 7.16556C28.5529 7.16556 28.0881 7.48623 27.8999 7.98252L26.2224 12.4006L21.5026 12.6306C20.9722 12.6562 20.5235 12.9991 20.3595 13.5042ZM26.6476 14.1658C27.1507 14.1413 27.5912 13.8212 27.7697 13.3504L29.0837 9.89005L30.3976 13.3508C30.5764 13.8214 31.0171 14.1413 31.5197 14.1658L35.2167 14.3461L32.3315 16.665C31.9389 16.9806 31.7708 17.4986 31.9029 17.9843L32.874 21.556L29.777 19.5286C29.5663 19.3908 29.3249 19.3219 29.0835 19.3219C28.8421 19.3219 28.6005 19.3909 28.3898 19.5287L25.293 21.556L26.2641 17.9845C26.3963 17.4984 26.228 16.9804 25.8353 16.665L22.9503 14.3462L26.6476 14.1658ZM28.1917 4.26501V0.991606C28.1917 0.499001 28.591 0.0996094 29.0837 0.0996094C29.5763 0.0996094 29.9757 0.499001 29.9757 0.991606V4.26501C29.9757 4.75762 29.5763 5.15701 29.0837 5.15701C28.591 5.15701 28.1917 4.75762 28.1917 4.26501ZM33.6238 9.54987C33.2942 9.18381 33.3238 8.61974 33.6898 8.29014L37.3375 5.00559C37.7037 4.67589 38.2677 4.70543 38.5974 5.0716C38.9269 5.43765 38.8974 6.00173 38.5313 6.33132L34.8835 9.61587C34.713 9.76941 34.4996 9.84501 34.2869 9.84501C34.043 9.84501 33.8 9.74555 33.6238 9.54987ZM19.57 5.0716C19.8995 4.70543 20.4635 4.67589 20.8298 5.00559L24.4776 8.29014C24.8437 8.61974 24.8732 9.18381 24.5436 9.54987C24.3674 9.74544 24.1244 9.84501 23.8804 9.84501C23.6678 9.84501 23.4544 9.76941 23.2838 9.61587L19.636 6.33132C19.2698 6.00173 19.2404 5.43765 19.57 5.0716ZM40.5273 14.8826L44.2107 17.8431L42.9709 22.4033C42.8318 22.9153 43.0192 23.4478 43.4488 23.7603C43.8782 24.072 44.4424 24.0856 44.8867 23.7952L48.8406 21.2069L52.7946 23.7953C53.0078 23.9348 53.2485 24.0041 53.4888 24.0041C53.7493 24.0041 54.0092 23.9226 54.2323 23.7603C54.6619 23.4484 54.8494 22.9158 54.7102 22.4033L53.4704 17.8432L57.1536 14.8828C57.5674 14.5504 57.7289 14.0093 57.5648 13.5042C57.4008 12.9991 56.9521 12.6562 56.422 12.6306L51.7019 12.4005L50.0246 7.98263C49.8363 7.48634 49.3714 7.16556 48.8406 7.16556C48.3096 7.16556 47.8448 7.48623 47.6565 7.98252L45.9792 12.4005L41.2594 12.6305C40.7289 12.6561 40.2802 12.9991 40.1162 13.5042C39.9521 14.0092 40.1135 14.5503 40.5273 14.8826ZM46.4042 14.1658C46.9074 14.1413 47.3481 13.8212 47.5267 13.3503L48.8405 9.88994L50.1542 13.3502C50.3329 13.8212 50.7736 14.1413 51.2765 14.1657L54.9735 14.346L52.0887 16.6647C51.6959 16.9802 51.5275 17.4982 51.6598 17.9841L52.6308 21.5559L49.5338 19.5285C49.3231 19.3907 49.0817 19.3218 48.8403 19.3218C48.5988 19.3218 48.3572 19.3908 48.1466 19.5286L45.0498 21.5559L46.0209 17.9844C46.153 17.4986 45.9849 16.9806 45.5922 16.6649L42.7071 14.346L46.4042 14.1658ZM1.01364 14.8826L4.69703 17.8431L3.45726 22.4033C3.31811 22.9153 3.50554 23.4478 3.93515 23.7603C4.36487 24.072 4.92895 24.0857 5.37305 23.7952L9.32693 21.2069L13.2809 23.7953C13.4941 23.9348 13.7348 24.0041 13.9751 24.0041C14.2356 24.0041 14.4955 23.9226 14.7186 23.7603C15.1482 23.4484 15.3358 22.9158 15.1965 22.4033L13.9567 17.8432L17.6399 14.8828C18.0536 14.5506 18.2151 14.0096 18.0511 13.5036C17.8868 12.9989 17.4381 12.6561 16.9083 12.6305L12.1882 12.4004L10.5109 7.98263C10.3226 7.48634 9.85778 7.16556 9.32693 7.16556C8.79597 7.16556 8.33113 7.48623 8.14281 7.98252L6.46552 12.4005L1.74574 12.6305C1.21534 12.6561 0.766666 12.9991 0.602762 13.5036C0.4383 14.0088 0.59964 14.5502 1.01364 14.8826ZM6.89056 14.1658C7.39375 14.1413 7.8344 13.8212 8.01302 13.3503L9.32682 9.88994L10.6405 13.3502C10.8192 13.8212 11.2599 14.1413 11.7629 14.1657L15.4599 14.346L12.575 16.6647C12.1822 16.9802 12.0139 17.4982 12.1461 17.9841L13.1171 21.5559L10.0201 19.5285C9.80939 19.3907 9.568 19.3218 9.3266 19.3218C9.08509 19.3218 8.84358 19.3908 8.63296 19.5286L5.53617 21.5559L6.50722 17.9844C6.63935 17.4986 6.47121 16.9806 6.07851 16.6649L3.19345 14.346L6.89056 14.1658ZM57.4872 47.4795C56.8595 45.4526 55.5741 43.6327 53.8673 42.3547C53.0503 41.7429 52.1605 41.2664 51.2219 40.929C52.5232 39.9076 53.3617 38.3221 53.3617 36.5434C53.3617 33.4698 50.8611 30.9693 47.7876 30.9693C44.714 30.9693 42.2134 33.4698 42.2134 36.5434C42.2134 38.32 43.0499 39.904 44.3486 40.9254C42.608 41.5467 41.066 42.6383 39.8851 44.1092C39.3331 43.337 38.6965 42.6199 37.9808 41.9726C36.5386 40.6684 34.8462 39.7106 33.0235 39.1445C34.9563 37.8632 36.2341 35.6692 36.2341 33.1815C36.2341 29.2389 33.0264 26.0313 29.0838 26.0313C25.1411 26.0313 21.9334 29.2389 21.9334 33.1815C21.9334 35.6692 23.2111 37.8632 25.1439 39.1445C23.3211 39.7105 21.6287 40.6684 20.1865 41.9726C19.4708 42.6199 18.8342 43.337 18.2824 44.109C17.1016 42.638 15.5595 41.5465 13.8188 40.9251C15.1174 39.9036 15.954 38.3197 15.954 36.543C15.954 33.4694 13.4534 30.9689 10.3799 30.9689C7.30634 30.9689 4.80574 33.4694 4.80574 36.543C4.80574 38.3217 5.64422 39.9073 6.94542 40.9286C6.00681 41.266 5.11704 41.7426 4.29986 42.3544C2.59314 43.6323 1.30766 45.4523 0.680031 47.479C0.390021 48.4152 0.550692 49.3652 1.13238 50.1544C1.71397 50.9434 2.57407 51.3778 3.55416 51.3778H15.8852V52.9876C15.8852 55.3035 17.7692 57.1875 20.0851 57.1875H38.0822C40.398 57.1875 42.2821 55.3035 42.2822 52.9876V51.3783H54.6132C55.5933 51.3783 56.4535 50.9437 57.0349 50.1549C57.6165 49.3657 57.7772 48.4155 57.4872 47.4795ZM47.7876 32.7533C49.8774 32.7533 51.5777 34.4535 51.5777 36.5434C51.5777 38.6333 49.8774 40.3336 47.7876 40.3336C45.6976 40.3336 43.9974 38.6333 43.9974 36.5434C43.9974 34.4535 45.6976 32.7533 47.7876 32.7533ZM23.7174 33.1815C23.7174 30.2226 26.1248 27.8153 29.0838 27.8153C32.0427 27.8153 34.4501 30.2226 34.4501 33.1815C34.4501 36.1396 32.0443 38.5462 29.0867 38.5478C29.0857 38.5478 29.0845 38.5478 29.0837 38.5478C29.0828 38.5478 29.0818 38.5478 29.0808 38.5478C26.1231 38.5461 23.7174 36.1395 23.7174 33.1815ZM10.3799 32.7528C12.4698 32.7528 14.17 34.4531 14.17 36.5429C14.17 38.6329 12.4698 40.3331 10.3799 40.3331C8.28999 40.3331 6.58973 38.6329 6.58973 36.5429C6.58973 34.4531 8.28999 32.7528 10.3799 32.7528ZM16.0011 49.5937H3.55427C3.14373 49.5937 2.81213 49.4262 2.5685 49.0958C2.32476 48.7653 2.26288 48.3989 2.3843 48.0067C3.47521 44.4839 6.68852 42.1171 10.3799 42.1171C13.1722 42.1171 15.7159 43.4663 17.2803 45.7501C16.6618 46.9516 16.2286 48.2467 16.0011 49.5937ZM40.4982 52.9875C40.4981 54.3196 39.4143 55.4034 38.0822 55.4034H20.0851C18.753 55.4034 17.6692 54.3196 17.6692 52.9875V50.5342C18.315 44.7153 23.2125 40.3332 29.0808 40.3318C29.0818 40.3318 29.0828 40.3319 29.0838 40.3319C29.0848 40.3319 29.0858 40.3318 29.0867 40.3318C34.9548 40.3333 39.8522 44.7153 40.4982 50.5342V52.9875ZM55.5989 49.0963C55.3553 49.4267 55.0238 49.5942 54.6132 49.5942H42.1665C41.9388 48.247 41.5056 46.952 40.8872 45.7503C42.4518 43.4666 44.9953 42.1176 47.7875 42.1176C51.4789 42.1176 54.6922 44.4845 55.7831 48.0073C55.9045 48.3992 55.8425 48.7656 55.5989 49.0963Z" stroke="#C82249" stroke-width="0.2" mask="url(#path-1-outside-1_1872_21445)"/>
</svg>
