<svg width="58" height="58" viewBox="0 0 58 58" fill="none" xmlns="http://www.w3.org/2000/svg">
<mask id="path-1-outside-1_1872_21437" maskUnits="userSpaceOnUse" x="-0.822266" y="-0.731445" width="59" height="58" fill="black">
<rect fill="white" x="-0.822266" y="-0.731445" width="59" height="58"/>
<path d="M57.116 51.1869C56.7466 46.2975 53.2767 42.276 48.7233 40.9818C50.8153 39.8624 52.2413 37.6647 52.2413 35.1421C52.2413 31.4879 49.2505 28.5146 45.5746 28.5146C41.8987 28.5146 38.9078 31.4879 38.9078 35.1421C38.9078 37.6647 40.3327 39.8624 42.4248 40.9818C39.51 41.8064 36.9971 43.7537 35.4815 46.4354C34.3801 45.6643 33.1444 45.0757 31.8213 44.7084C34.0085 43.569 35.5039 41.2901 35.5039 38.6707C35.5039 34.9129 32.4291 31.8562 28.6491 31.8562C24.8691 31.8562 21.7943 34.9129 21.7943 38.6707C21.7943 41.2912 23.2909 43.569 25.4769 44.7084C24.1539 45.0757 22.9181 45.6654 21.8167 46.4354C20.3011 43.7526 17.7882 41.8064 14.8735 40.9818C16.9655 39.8624 18.3904 37.6647 18.3904 35.1421C18.3904 31.4879 15.3996 28.5146 11.7237 28.5146C8.04777 28.5146 5.05691 31.4879 5.05691 35.1421C5.05691 37.6647 6.48294 39.8624 8.57497 40.9818C4.02152 42.276 0.551586 46.2963 0.182205 51.1869C0.148625 51.6386 0.305332 52.0882 0.614268 52.4187C0.923205 52.7492 1.36198 52.9395 1.81755 52.9395H17.1681C16.9588 53.6794 16.82 54.4483 16.7595 55.2395C16.7248 55.698 16.8849 56.1542 17.1983 56.4902C17.5117 56.8263 17.9572 57.0188 18.4195 57.0188H38.8765C39.3399 57.0188 39.7843 56.8263 40.0977 56.4902C40.4111 56.1542 40.5711 55.6991 40.5364 55.2395C40.4771 54.4483 40.3372 53.6794 40.1279 52.9395H55.4796C55.9362 52.9395 56.375 52.7492 56.6828 52.4187C56.9907 52.0882 57.1496 51.6386 57.116 51.1869ZM40.6976 35.1421C40.6976 32.4693 42.8848 30.295 45.5734 30.295C48.2621 30.295 50.4493 32.4693 50.4493 35.1421C50.4493 37.815 48.2621 39.9893 45.5734 39.9893C42.8848 39.9893 40.6976 37.815 40.6976 35.1421ZM23.5852 38.6707C23.5852 35.8944 25.8575 33.6366 28.6491 33.6366C31.4407 33.6366 33.713 35.8944 33.713 38.6707C33.713 41.447 31.4418 43.7047 28.6491 43.7047C25.8564 43.7047 23.5852 41.4459 23.5852 38.6707ZM6.84784 35.1421C6.84784 32.4693 9.03502 30.295 11.7237 30.295C14.4123 30.295 16.5995 32.4693 16.5995 35.1421C16.5995 37.815 14.4123 39.9893 11.7237 39.9893C9.03502 39.9893 6.84784 37.815 6.84784 35.1421ZM17.833 51.1591H1.98209C2.4399 46.1917 6.68889 42.3238 11.7248 42.3238C15.3861 42.3238 18.7285 44.3713 20.4097 47.5894C19.3441 48.6042 18.4643 49.8126 17.833 51.1591ZM18.5572 55.2384C19.0172 50.0786 23.4229 46.0571 28.6491 46.0571C33.8753 46.0571 38.281 50.0786 38.741 55.2384H18.5572ZM39.4652 51.1591C38.8339 49.8126 37.9541 48.6042 36.8897 47.5882C38.5709 44.3702 41.9132 42.3227 45.5746 42.3227C50.6105 42.3227 54.8583 46.1906 55.3172 51.1579H39.4652V51.1591ZM22.7726 21.442C23.17 21.6779 23.3804 22.0451 23.3804 22.5057V25.0651C23.3804 26.0365 23.9804 26.87 24.8322 27.2205V27.551C24.8322 29.2156 26.2843 29.9302 27.9588 29.9302H29.3879C31.0624 29.9302 32.4246 29.2156 32.4246 27.551V27.2205C33.2753 26.87 33.8764 26.0365 33.8764 25.0651V22.5057C33.8764 22.0451 34.0868 21.6779 34.4842 21.442C37.9373 19.3967 40.082 15.6468 40.082 11.6542C40.082 5.37608 34.9431 0.268555 28.6278 0.268555C22.3126 0.268555 17.1748 5.37608 17.1748 11.6542C17.1748 15.6468 19.3195 19.3967 22.7726 21.442ZM26.5145 13.8975C25.2486 13.5136 24.4337 12.8204 24.4337 12.1794C24.4337 11.6097 24.9005 11.1457 25.4736 11.1457C26.0467 11.1457 26.5134 11.6097 26.5134 12.1794V13.8975H26.5145ZM28.9502 22.5625H28.3055V15.9717C28.5193 15.9784 28.7364 15.9784 28.9502 15.9717V22.5625ZM32.0844 24.3429V25.0651C32.0844 25.37 31.8347 25.6181 31.528 25.6181H25.7276C25.421 25.6181 25.1713 25.37 25.1713 25.0651V24.3429H32.0844ZM29.3397 28.8372H28.619H28.0092C27.3219 28.8372 26.6231 28.2342 26.6231 27.551V27.3985H30.6326V27.551C30.6326 28.2342 30.0259 28.8372 29.3397 28.8372ZM28.6278 2.04895C33.9559 2.04895 38.2899 6.35752 38.2899 11.6542C38.2899 15.0225 36.48 18.1861 33.5663 19.9119C32.6239 20.4705 32.0844 21.4153 32.0844 22.5046V22.5614H30.7411V15.7413C33.0246 15.2106 34.6118 13.8341 34.6118 12.1783C34.6118 10.626 33.3414 9.36417 31.781 9.36417C30.2207 9.36417 28.9502 10.6271 28.9502 12.1783V14.1891C28.7375 14.198 28.517 14.198 28.3055 14.1891V12.1783C28.3055 10.626 27.035 9.36417 25.4747 9.36417C23.9132 9.36417 22.6439 10.6271 22.6439 12.1783C22.6439 13.8341 24.2322 15.2106 26.5157 15.7413V22.5614H25.1725V22.5046C25.1725 21.4153 24.6318 20.4694 23.6905 19.9119C20.7768 18.1861 18.9669 15.0214 18.9669 11.6542C18.9658 6.35752 23.2998 2.04895 28.6278 2.04895ZM30.7411 13.8975V12.1794C30.7411 11.6097 31.2079 11.1457 31.781 11.1457C32.3541 11.1457 32.8209 11.6097 32.8209 12.1794C32.822 12.8215 32.0071 13.5136 30.7411 13.8975ZM39.3354 5.42615C39.088 4.99997 39.2347 4.45583 39.6634 4.20991L42.0341 2.84902C42.4628 2.6031 43.0102 2.74887 43.2575 3.17506C43.5049 3.60124 43.3583 4.14538 42.9296 4.39129L40.5588 5.75107C40.4178 5.8323 40.2633 5.87014 40.1122 5.87014C39.8022 5.87125 39.5011 5.71101 39.3354 5.42615ZM41.9289 10.6928H44.6668C45.1615 10.6928 45.5623 11.0912 45.5623 11.583C45.5623 12.0748 45.1615 12.4732 44.6668 12.4732H41.9289C41.4341 12.4732 41.0334 12.0748 41.0334 11.583C41.0334 11.0912 41.4353 10.6928 41.9289 10.6928ZM43.0023 18.7936C43.431 19.0395 43.5777 19.5837 43.3303 20.0099C43.1646 20.2958 42.8635 20.455 42.5535 20.455C42.4013 20.455 42.2479 20.416 42.1069 20.3359L39.7361 18.975C39.3074 18.7291 39.1608 18.1849 39.4082 17.7588C39.6555 17.3326 40.2029 17.1868 40.6316 17.4327L43.0023 18.7936ZM17.9203 17.8834C18.1677 18.3096 18.021 18.8537 17.5923 19.0996L15.2216 20.4605C15.0805 20.5417 14.9261 20.5796 14.775 20.5796C14.466 20.5796 14.1649 20.4193 13.9981 20.1345C13.7508 19.7083 13.8974 19.1642 14.3261 18.9182L16.6969 17.5573C17.1256 17.3114 17.6729 17.4572 17.9203 17.8834ZM13.9981 3.17506C14.2455 2.74887 14.7929 2.6031 15.2216 2.84902L17.5923 4.20991C18.021 4.45583 18.1677 4.99997 17.9203 5.42615C17.7546 5.71213 17.4535 5.87125 17.1435 5.87125C16.9912 5.87125 16.8379 5.8323 16.6969 5.75219L14.3261 4.39129C13.8985 4.14426 13.7508 3.60013 13.9981 3.17506ZM11.7349 11.5708C11.7349 11.0789 12.1356 10.6806 12.6303 10.6806H15.3682C15.863 10.6806 16.2637 11.0789 16.2637 11.5708C16.2637 12.0626 15.863 12.461 15.3682 12.461H12.6303C12.1367 12.461 11.7349 12.0626 11.7349 11.5708Z"/>
</mask>
<path d="M57.116 51.1869C56.7466 46.2975 53.2767 42.276 48.7233 40.9818C50.8153 39.8624 52.2413 37.6647 52.2413 35.1421C52.2413 31.4879 49.2505 28.5146 45.5746 28.5146C41.8987 28.5146 38.9078 31.4879 38.9078 35.1421C38.9078 37.6647 40.3327 39.8624 42.4248 40.9818C39.51 41.8064 36.9971 43.7537 35.4815 46.4354C34.3801 45.6643 33.1444 45.0757 31.8213 44.7084C34.0085 43.569 35.5039 41.2901 35.5039 38.6707C35.5039 34.9129 32.4291 31.8562 28.6491 31.8562C24.8691 31.8562 21.7943 34.9129 21.7943 38.6707C21.7943 41.2912 23.2909 43.569 25.4769 44.7084C24.1539 45.0757 22.9181 45.6654 21.8167 46.4354C20.3011 43.7526 17.7882 41.8064 14.8735 40.9818C16.9655 39.8624 18.3904 37.6647 18.3904 35.1421C18.3904 31.4879 15.3996 28.5146 11.7237 28.5146C8.04777 28.5146 5.05691 31.4879 5.05691 35.1421C5.05691 37.6647 6.48294 39.8624 8.57497 40.9818C4.02152 42.276 0.551586 46.2963 0.182205 51.1869C0.148625 51.6386 0.305332 52.0882 0.614268 52.4187C0.923205 52.7492 1.36198 52.9395 1.81755 52.9395H17.1681C16.9588 53.6794 16.82 54.4483 16.7595 55.2395C16.7248 55.698 16.8849 56.1542 17.1983 56.4902C17.5117 56.8263 17.9572 57.0188 18.4195 57.0188H38.8765C39.3399 57.0188 39.7843 56.8263 40.0977 56.4902C40.4111 56.1542 40.5711 55.6991 40.5364 55.2395C40.4771 54.4483 40.3372 53.6794 40.1279 52.9395H55.4796C55.9362 52.9395 56.375 52.7492 56.6828 52.4187C56.9907 52.0882 57.1496 51.6386 57.116 51.1869ZM40.6976 35.1421C40.6976 32.4693 42.8848 30.295 45.5734 30.295C48.2621 30.295 50.4493 32.4693 50.4493 35.1421C50.4493 37.815 48.2621 39.9893 45.5734 39.9893C42.8848 39.9893 40.6976 37.815 40.6976 35.1421ZM23.5852 38.6707C23.5852 35.8944 25.8575 33.6366 28.6491 33.6366C31.4407 33.6366 33.713 35.8944 33.713 38.6707C33.713 41.447 31.4418 43.7047 28.6491 43.7047C25.8564 43.7047 23.5852 41.4459 23.5852 38.6707ZM6.84784 35.1421C6.84784 32.4693 9.03502 30.295 11.7237 30.295C14.4123 30.295 16.5995 32.4693 16.5995 35.1421C16.5995 37.815 14.4123 39.9893 11.7237 39.9893C9.03502 39.9893 6.84784 37.815 6.84784 35.1421ZM17.833 51.1591H1.98209C2.4399 46.1917 6.68889 42.3238 11.7248 42.3238C15.3861 42.3238 18.7285 44.3713 20.4097 47.5894C19.3441 48.6042 18.4643 49.8126 17.833 51.1591ZM18.5572 55.2384C19.0172 50.0786 23.4229 46.0571 28.6491 46.0571C33.8753 46.0571 38.281 50.0786 38.741 55.2384H18.5572ZM39.4652 51.1591C38.8339 49.8126 37.9541 48.6042 36.8897 47.5882C38.5709 44.3702 41.9132 42.3227 45.5746 42.3227C50.6105 42.3227 54.8583 46.1906 55.3172 51.1579H39.4652V51.1591ZM22.7726 21.442C23.17 21.6779 23.3804 22.0451 23.3804 22.5057V25.0651C23.3804 26.0365 23.9804 26.87 24.8322 27.2205V27.551C24.8322 29.2156 26.2843 29.9302 27.9588 29.9302H29.3879C31.0624 29.9302 32.4246 29.2156 32.4246 27.551V27.2205C33.2753 26.87 33.8764 26.0365 33.8764 25.0651V22.5057C33.8764 22.0451 34.0868 21.6779 34.4842 21.442C37.9373 19.3967 40.082 15.6468 40.082 11.6542C40.082 5.37608 34.9431 0.268555 28.6278 0.268555C22.3126 0.268555 17.1748 5.37608 17.1748 11.6542C17.1748 15.6468 19.3195 19.3967 22.7726 21.442ZM26.5145 13.8975C25.2486 13.5136 24.4337 12.8204 24.4337 12.1794C24.4337 11.6097 24.9005 11.1457 25.4736 11.1457C26.0467 11.1457 26.5134 11.6097 26.5134 12.1794V13.8975H26.5145ZM28.9502 22.5625H28.3055V15.9717C28.5193 15.9784 28.7364 15.9784 28.9502 15.9717V22.5625ZM32.0844 24.3429V25.0651C32.0844 25.37 31.8347 25.6181 31.528 25.6181H25.7276C25.421 25.6181 25.1713 25.37 25.1713 25.0651V24.3429H32.0844ZM29.3397 28.8372H28.619H28.0092C27.3219 28.8372 26.6231 28.2342 26.6231 27.551V27.3985H30.6326V27.551C30.6326 28.2342 30.0259 28.8372 29.3397 28.8372ZM28.6278 2.04895C33.9559 2.04895 38.2899 6.35752 38.2899 11.6542C38.2899 15.0225 36.48 18.1861 33.5663 19.9119C32.6239 20.4705 32.0844 21.4153 32.0844 22.5046V22.5614H30.7411V15.7413C33.0246 15.2106 34.6118 13.8341 34.6118 12.1783C34.6118 10.626 33.3414 9.36417 31.781 9.36417C30.2207 9.36417 28.9502 10.6271 28.9502 12.1783V14.1891C28.7375 14.198 28.517 14.198 28.3055 14.1891V12.1783C28.3055 10.626 27.035 9.36417 25.4747 9.36417C23.9132 9.36417 22.6439 10.6271 22.6439 12.1783C22.6439 13.8341 24.2322 15.2106 26.5157 15.7413V22.5614H25.1725V22.5046C25.1725 21.4153 24.6318 20.4694 23.6905 19.9119C20.7768 18.1861 18.9669 15.0214 18.9669 11.6542C18.9658 6.35752 23.2998 2.04895 28.6278 2.04895ZM30.7411 13.8975V12.1794C30.7411 11.6097 31.2079 11.1457 31.781 11.1457C32.3541 11.1457 32.8209 11.6097 32.8209 12.1794C32.822 12.8215 32.0071 13.5136 30.7411 13.8975ZM39.3354 5.42615C39.088 4.99997 39.2347 4.45583 39.6634 4.20991L42.0341 2.84902C42.4628 2.6031 43.0102 2.74887 43.2575 3.17506C43.5049 3.60124 43.3583 4.14538 42.9296 4.39129L40.5588 5.75107C40.4178 5.8323 40.2633 5.87014 40.1122 5.87014C39.8022 5.87125 39.5011 5.71101 39.3354 5.42615ZM41.9289 10.6928H44.6668C45.1615 10.6928 45.5623 11.0912 45.5623 11.583C45.5623 12.0748 45.1615 12.4732 44.6668 12.4732H41.9289C41.4341 12.4732 41.0334 12.0748 41.0334 11.583C41.0334 11.0912 41.4353 10.6928 41.9289 10.6928ZM43.0023 18.7936C43.431 19.0395 43.5777 19.5837 43.3303 20.0099C43.1646 20.2958 42.8635 20.455 42.5535 20.455C42.4013 20.455 42.2479 20.416 42.1069 20.3359L39.7361 18.975C39.3074 18.7291 39.1608 18.1849 39.4082 17.7588C39.6555 17.3326 40.2029 17.1868 40.6316 17.4327L43.0023 18.7936ZM17.9203 17.8834C18.1677 18.3096 18.021 18.8537 17.5923 19.0996L15.2216 20.4605C15.0805 20.5417 14.9261 20.5796 14.775 20.5796C14.466 20.5796 14.1649 20.4193 13.9981 20.1345C13.7508 19.7083 13.8974 19.1642 14.3261 18.9182L16.6969 17.5573C17.1256 17.3114 17.6729 17.4572 17.9203 17.8834ZM13.9981 3.17506C14.2455 2.74887 14.7929 2.6031 15.2216 2.84902L17.5923 4.20991C18.021 4.45583 18.1677 4.99997 17.9203 5.42615C17.7546 5.71213 17.4535 5.87125 17.1435 5.87125C16.9912 5.87125 16.8379 5.8323 16.6969 5.75219L14.3261 4.39129C13.8985 4.14426 13.7508 3.60013 13.9981 3.17506ZM11.7349 11.5708C11.7349 11.0789 12.1356 10.6806 12.6303 10.6806H15.3682C15.863 10.6806 16.2637 11.0789 16.2637 11.5708C16.2637 12.0626 15.863 12.461 15.3682 12.461H12.6303C12.1367 12.461 11.7349 12.0626 11.7349 11.5708Z" fill="#C82249"/>
<path d="M57.116 51.1869C56.7466 46.2975 53.2767 42.276 48.7233 40.9818C50.8153 39.8624 52.2413 37.6647 52.2413 35.1421C52.2413 31.4879 49.2505 28.5146 45.5746 28.5146C41.8987 28.5146 38.9078 31.4879 38.9078 35.1421C38.9078 37.6647 40.3327 39.8624 42.4248 40.9818C39.51 41.8064 36.9971 43.7537 35.4815 46.4354C34.3801 45.6643 33.1444 45.0757 31.8213 44.7084C34.0085 43.569 35.5039 41.2901 35.5039 38.6707C35.5039 34.9129 32.4291 31.8562 28.6491 31.8562C24.8691 31.8562 21.7943 34.9129 21.7943 38.6707C21.7943 41.2912 23.2909 43.569 25.4769 44.7084C24.1539 45.0757 22.9181 45.6654 21.8167 46.4354C20.3011 43.7526 17.7882 41.8064 14.8735 40.9818C16.9655 39.8624 18.3904 37.6647 18.3904 35.1421C18.3904 31.4879 15.3996 28.5146 11.7237 28.5146C8.04777 28.5146 5.05691 31.4879 5.05691 35.1421C5.05691 37.6647 6.48294 39.8624 8.57497 40.9818C4.02152 42.276 0.551586 46.2963 0.182205 51.1869C0.148625 51.6386 0.305332 52.0882 0.614268 52.4187C0.923205 52.7492 1.36198 52.9395 1.81755 52.9395H17.1681C16.9588 53.6794 16.82 54.4483 16.7595 55.2395C16.7248 55.698 16.8849 56.1542 17.1983 56.4902C17.5117 56.8263 17.9572 57.0188 18.4195 57.0188H38.8765C39.3399 57.0188 39.7843 56.8263 40.0977 56.4902C40.4111 56.1542 40.5711 55.6991 40.5364 55.2395C40.4771 54.4483 40.3372 53.6794 40.1279 52.9395H55.4796C55.9362 52.9395 56.375 52.7492 56.6828 52.4187C56.9907 52.0882 57.1496 51.6386 57.116 51.1869ZM40.6976 35.1421C40.6976 32.4693 42.8848 30.295 45.5734 30.295C48.2621 30.295 50.4493 32.4693 50.4493 35.1421C50.4493 37.815 48.2621 39.9893 45.5734 39.9893C42.8848 39.9893 40.6976 37.815 40.6976 35.1421ZM23.5852 38.6707C23.5852 35.8944 25.8575 33.6366 28.6491 33.6366C31.4407 33.6366 33.713 35.8944 33.713 38.6707C33.713 41.447 31.4418 43.7047 28.6491 43.7047C25.8564 43.7047 23.5852 41.4459 23.5852 38.6707ZM6.84784 35.1421C6.84784 32.4693 9.03502 30.295 11.7237 30.295C14.4123 30.295 16.5995 32.4693 16.5995 35.1421C16.5995 37.815 14.4123 39.9893 11.7237 39.9893C9.03502 39.9893 6.84784 37.815 6.84784 35.1421ZM17.833 51.1591H1.98209C2.4399 46.1917 6.68889 42.3238 11.7248 42.3238C15.3861 42.3238 18.7285 44.3713 20.4097 47.5894C19.3441 48.6042 18.4643 49.8126 17.833 51.1591ZM18.5572 55.2384C19.0172 50.0786 23.4229 46.0571 28.6491 46.0571C33.8753 46.0571 38.281 50.0786 38.741 55.2384H18.5572ZM39.4652 51.1591C38.8339 49.8126 37.9541 48.6042 36.8897 47.5882C38.5709 44.3702 41.9132 42.3227 45.5746 42.3227C50.6105 42.3227 54.8583 46.1906 55.3172 51.1579H39.4652V51.1591ZM22.7726 21.442C23.17 21.6779 23.3804 22.0451 23.3804 22.5057V25.0651C23.3804 26.0365 23.9804 26.87 24.8322 27.2205V27.551C24.8322 29.2156 26.2843 29.9302 27.9588 29.9302H29.3879C31.0624 29.9302 32.4246 29.2156 32.4246 27.551V27.2205C33.2753 26.87 33.8764 26.0365 33.8764 25.0651V22.5057C33.8764 22.0451 34.0868 21.6779 34.4842 21.442C37.9373 19.3967 40.082 15.6468 40.082 11.6542C40.082 5.37608 34.9431 0.268555 28.6278 0.268555C22.3126 0.268555 17.1748 5.37608 17.1748 11.6542C17.1748 15.6468 19.3195 19.3967 22.7726 21.442ZM26.5145 13.8975C25.2486 13.5136 24.4337 12.8204 24.4337 12.1794C24.4337 11.6097 24.9005 11.1457 25.4736 11.1457C26.0467 11.1457 26.5134 11.6097 26.5134 12.1794V13.8975H26.5145ZM28.9502 22.5625H28.3055V15.9717C28.5193 15.9784 28.7364 15.9784 28.9502 15.9717V22.5625ZM32.0844 24.3429V25.0651C32.0844 25.37 31.8347 25.6181 31.528 25.6181H25.7276C25.421 25.6181 25.1713 25.37 25.1713 25.0651V24.3429H32.0844ZM29.3397 28.8372H28.619H28.0092C27.3219 28.8372 26.6231 28.2342 26.6231 27.551V27.3985H30.6326V27.551C30.6326 28.2342 30.0259 28.8372 29.3397 28.8372ZM28.6278 2.04895C33.9559 2.04895 38.2899 6.35752 38.2899 11.6542C38.2899 15.0225 36.48 18.1861 33.5663 19.9119C32.6239 20.4705 32.0844 21.4153 32.0844 22.5046V22.5614H30.7411V15.7413C33.0246 15.2106 34.6118 13.8341 34.6118 12.1783C34.6118 10.626 33.3414 9.36417 31.781 9.36417C30.2207 9.36417 28.9502 10.6271 28.9502 12.1783V14.1891C28.7375 14.198 28.517 14.198 28.3055 14.1891V12.1783C28.3055 10.626 27.035 9.36417 25.4747 9.36417C23.9132 9.36417 22.6439 10.6271 22.6439 12.1783C22.6439 13.8341 24.2322 15.2106 26.5157 15.7413V22.5614H25.1725V22.5046C25.1725 21.4153 24.6318 20.4694 23.6905 19.9119C20.7768 18.1861 18.9669 15.0214 18.9669 11.6542C18.9658 6.35752 23.2998 2.04895 28.6278 2.04895ZM30.7411 13.8975V12.1794C30.7411 11.6097 31.2079 11.1457 31.781 11.1457C32.3541 11.1457 32.8209 11.6097 32.8209 12.1794C32.822 12.8215 32.0071 13.5136 30.7411 13.8975ZM39.3354 5.42615C39.088 4.99997 39.2347 4.45583 39.6634 4.20991L42.0341 2.84902C42.4628 2.6031 43.0102 2.74887 43.2575 3.17506C43.5049 3.60124 43.3583 4.14538 42.9296 4.39129L40.5588 5.75107C40.4178 5.8323 40.2633 5.87014 40.1122 5.87014C39.8022 5.87125 39.5011 5.71101 39.3354 5.42615ZM41.9289 10.6928H44.6668C45.1615 10.6928 45.5623 11.0912 45.5623 11.583C45.5623 12.0748 45.1615 12.4732 44.6668 12.4732H41.9289C41.4341 12.4732 41.0334 12.0748 41.0334 11.583C41.0334 11.0912 41.4353 10.6928 41.9289 10.6928ZM43.0023 18.7936C43.431 19.0395 43.5777 19.5837 43.3303 20.0099C43.1646 20.2958 42.8635 20.455 42.5535 20.455C42.4013 20.455 42.2479 20.416 42.1069 20.3359L39.7361 18.975C39.3074 18.7291 39.1608 18.1849 39.4082 17.7588C39.6555 17.3326 40.2029 17.1868 40.6316 17.4327L43.0023 18.7936ZM17.9203 17.8834C18.1677 18.3096 18.021 18.8537 17.5923 19.0996L15.2216 20.4605C15.0805 20.5417 14.9261 20.5796 14.775 20.5796C14.466 20.5796 14.1649 20.4193 13.9981 20.1345C13.7508 19.7083 13.8974 19.1642 14.3261 18.9182L16.6969 17.5573C17.1256 17.3114 17.6729 17.4572 17.9203 17.8834ZM13.9981 3.17506C14.2455 2.74887 14.7929 2.6031 15.2216 2.84902L17.5923 4.20991C18.021 4.45583 18.1677 4.99997 17.9203 5.42615C17.7546 5.71213 17.4535 5.87125 17.1435 5.87125C16.9912 5.87125 16.8379 5.8323 16.6969 5.75219L14.3261 4.39129C13.8985 4.14426 13.7508 3.60013 13.9981 3.17506ZM11.7349 11.5708C11.7349 11.0789 12.1356 10.6806 12.6303 10.6806H15.3682C15.863 10.6806 16.2637 11.0789 16.2637 11.5708C16.2637 12.0626 15.863 12.461 15.3682 12.461H12.6303C12.1367 12.461 11.7349 12.0626 11.7349 11.5708Z" stroke="#C82249" stroke-width="0.2" mask="url(#path-1-outside-1_1872_21437)"/>
<path d="M31.3634 22.467H25.9794L24.5676 16.6053L20.7461 13.5695L22.2144 8.58612L30.8175 7.95605L37.0297 11.1066L32.8882 15.9563L31.3634 22.467Z" fill="#F7F6F3"/>
<rect x="24.873" y="23.6562" width="7.84726" height="2.38184" rx="1" fill="#F7F6F3"/>
</svg>
