<svg xmlns="http://www.w3.org/2000/svg" width="58" height="58" fill="none" xmlns:v="https://vecta.io/nano"><mask id="A" maskUnits="userSpaceOnUse" x="-.822" y="-.731" width="59" height="58" fill="#000"><path fill="#fff" d="M-.822-.731h59v58h-59z"/><path d="M57.116 51.187c-.369-4.889-3.839-8.911-8.393-10.205 2.092-1.119 3.518-3.317 3.518-5.84 0-3.654-2.991-6.627-6.667-6.627s-6.667 2.973-6.667 6.627c0 2.523 1.425 4.72 3.517 5.84-2.915.825-5.428 2.772-6.943 5.454a11.96 11.96 0 0 0-3.66-1.727c2.187-1.139 3.683-3.418 3.683-6.038 0-3.758-3.075-6.814-6.855-6.814s-6.855 3.057-6.855 6.814c0 2.621 1.497 4.898 3.683 6.038-1.323.367-2.559.957-3.66 1.727a11.61 11.61 0 0 0-6.943-5.454c2.092-1.119 3.517-3.317 3.517-5.84 0-3.654-2.991-6.627-6.667-6.627s-6.667 2.973-6.667 6.627c0 2.523 1.426 4.72 3.518 5.84C4.022 42.276.552 46.296.182 51.187a1.63 1.63 0 0 0 .432 1.232c.309.331.748.521 1.203.521h15.351a11.73 11.73 0 0 0-.409 2.3c-.035.459.125.915.439 1.251s.759.529 1.221.529h20.457c.463 0 .908-.192 1.221-.529s.473-.791.439-1.251a11.64 11.64 0 0 0-.409-2.3H55.48a1.65 1.65 0 0 0 1.203-.521c.308-.331.467-.78.433-1.232zM40.698 35.142c0-2.673 2.187-4.847 4.876-4.847s4.876 2.174 4.876 4.847-2.187 4.847-4.876 4.847-4.876-2.174-4.876-4.847zm-17.112 3.529c0-2.776 2.272-5.034 5.064-5.034s5.064 2.258 5.064 5.034-2.271 5.034-5.064 5.034-5.064-2.259-5.064-5.034zM6.848 35.142c0-2.673 2.187-4.847 4.876-4.847s4.876 2.174 4.876 4.847-2.187 4.847-4.876 4.847-4.876-2.174-4.876-4.847zm10.985 16.017H1.982c.458-4.967 4.707-8.835 9.743-8.835a9.81 9.81 0 0 1 8.685 5.266 11.93 11.93 0 0 0-2.577 3.57zm.724 4.079c.46-5.16 4.866-9.181 10.092-9.181s9.632 4.022 10.092 9.181H18.557zm20.908-4.079c-.631-1.346-1.511-2.555-2.576-3.571a9.81 9.81 0 0 1 8.685-5.266c5.036 0 9.284 3.868 9.743 8.835H39.465v.001zM22.773 21.442a1.18 1.18 0 0 1 .608 1.064v2.559c0 .971.6 1.805 1.452 2.155v.33c0 1.665 1.452 2.379 3.127 2.379h1.429c1.675 0 3.037-.715 3.037-2.379v-.33c.851-.351 1.452-1.184 1.452-2.155v-2.559a1.18 1.18 0 0 1 .608-1.064c3.453-2.045 5.598-5.795 5.598-9.788 0-6.278-5.139-11.386-11.454-11.386S17.175 5.376 17.175 11.654c0 3.993 2.145 7.743 5.598 9.788zm3.742-7.544c-1.266-.384-2.081-1.077-2.081-1.718a1.04 1.04 0 0 1 1.04-1.034 1.04 1.04 0 0 1 1.04 1.034v1.718h.001zm2.436 8.665h-.645v-6.591a10.34 10.34 0 0 0 .645 0v6.591zm3.134 1.78v.722c0 .305-.25.553-.556.553h-5.8c-.307 0-.556-.248-.556-.553v-.722h6.913zm-2.745 4.494h-.721-.61c-.687 0-1.386-.603-1.386-1.286v-.152h4.009v.152a1.33 1.33 0 0 1-1.293 1.286zm-.712-26.788c5.328 0 9.662 4.309 9.662 9.605 0 3.368-1.81 6.532-4.724 8.258a2.95 2.95 0 0 0-1.482 2.593v.057h-1.343v-6.82c2.284-.531 3.871-1.907 3.871-3.563 0-1.552-1.27-2.814-2.831-2.814s-2.831 1.263-2.831 2.814v2.011c-.213.009-.433.009-.645 0v-2.011c0-1.552-1.27-2.814-2.831-2.814s-2.831 1.263-2.831 2.814c0 1.656 1.588 3.032 3.872 3.563v6.82h-1.343v-.057a2.95 2.95 0 0 0-1.482-2.593 9.65 9.65 0 0 1-4.724-8.258c-.001-5.297 4.333-9.605 9.661-9.605zm2.113 11.849v-1.718a1.04 1.04 0 0 1 2.08 0c.001.642-.814 1.334-2.08 1.718zm8.594-8.471c-.247-.426-.101-.97.328-1.216l2.371-1.361a.9.9 0 0 1 1.223.326c.247.426.101.97-.328 1.216l-2.371 1.36c-.141.081-.295.119-.447.119-.31.001-.611-.159-.777-.444zm2.593 5.267h2.738c.495 0 .895.398.895.89s-.401.89-.895.89h-2.738c-.495 0-.895-.398-.895-.89s.402-.89.895-.89zm1.073 8.101c.429.246.575.79.328 1.216-.166.286-.467.445-.777.445a.9.9 0 0 1-.447-.119l-2.371-1.361c-.429-.246-.575-.79-.328-1.216a.9.9 0 0 1 1.223-.326l2.371 1.361zm-25.082-.91c.247.426.101.97-.328 1.216l-2.371 1.361c-.141.081-.296.119-.447.119a.9.9 0 0 1-.777-.445c-.247-.426-.101-.97.328-1.216l2.371-1.361a.9.9 0 0 1 1.223.326zM13.998 3.175a.9.9 0 0 1 1.223-.326l2.371 1.361c.429.246.575.79.328 1.216-.166.286-.467.445-.777.445a.9.9 0 0 1-.447-.119l-2.371-1.361a.89.89 0 0 1-.328-1.216zm-2.263 8.396c0-.492.401-.89.895-.89h2.738c.495 0 .896.398.896.89s-.401.89-.896.89H12.63c-.494 0-.895-.398-.895-.89z"/></mask><path d="M57.116 51.187c-.369-4.889-3.839-8.911-8.393-10.205 2.092-1.119 3.518-3.317 3.518-5.84 0-3.654-2.991-6.627-6.667-6.627s-6.667 2.973-6.667 6.627c0 2.523 1.425 4.72 3.517 5.84-2.915.825-5.428 2.772-6.943 5.454a11.96 11.96 0 0 0-3.66-1.727c2.187-1.139 3.683-3.418 3.683-6.038 0-3.758-3.075-6.814-6.855-6.814s-6.855 3.057-6.855 6.814c0 2.621 1.497 4.898 3.683 6.038-1.323.367-2.559.957-3.66 1.727a11.61 11.61 0 0 0-6.943-5.454c2.092-1.119 3.517-3.317 3.517-5.84 0-3.654-2.991-6.627-6.667-6.627s-6.667 2.973-6.667 6.627c0 2.523 1.426 4.72 3.518 5.84C4.022 42.276.552 46.296.182 51.187a1.63 1.63 0 0 0 .432 1.232c.309.331.748.521 1.203.521h15.351a11.73 11.73 0 0 0-.409 2.3c-.035.459.125.915.439 1.251s.759.529 1.221.529h20.457c.463 0 .908-.192 1.221-.529s.473-.791.439-1.251a11.64 11.64 0 0 0-.409-2.3H55.48a1.65 1.65 0 0 0 1.203-.521c.308-.331.467-.78.433-1.232zM40.698 35.142c0-2.673 2.187-4.847 4.876-4.847s4.876 2.174 4.876 4.847-2.187 4.847-4.876 4.847-4.876-2.174-4.876-4.847zm-17.112 3.529c0-2.776 2.272-5.034 5.064-5.034s5.064 2.258 5.064 5.034-2.271 5.034-5.064 5.034-5.064-2.259-5.064-5.034zM6.848 35.142c0-2.673 2.187-4.847 4.876-4.847s4.876 2.174 4.876 4.847-2.187 4.847-4.876 4.847-4.876-2.174-4.876-4.847zm10.985 16.017H1.982c.458-4.967 4.707-8.835 9.743-8.835a9.81 9.81 0 0 1 8.685 5.266 11.93 11.93 0 0 0-2.577 3.57zm.724 4.079c.46-5.16 4.866-9.181 10.092-9.181s9.632 4.022 10.092 9.181H18.557zm20.908-4.079c-.631-1.346-1.511-2.555-2.576-3.571a9.81 9.81 0 0 1 8.685-5.266c5.036 0 9.284 3.868 9.743 8.835H39.465v.001zM22.773 21.442a1.18 1.18 0 0 1 .608 1.064v2.559c0 .971.6 1.805 1.452 2.155v.33c0 1.665 1.452 2.379 3.127 2.379h1.429c1.675 0 3.037-.715 3.037-2.379v-.33c.851-.351 1.452-1.184 1.452-2.155v-2.559a1.18 1.18 0 0 1 .608-1.064c3.453-2.045 5.598-5.795 5.598-9.788 0-6.278-5.139-11.386-11.454-11.386S17.175 5.376 17.175 11.654c0 3.993 2.145 7.743 5.598 9.788zm3.742-7.544c-1.266-.384-2.081-1.077-2.081-1.718a1.04 1.04 0 0 1 1.04-1.034 1.04 1.04 0 0 1 1.04 1.034v1.718h.001zm2.436 8.665h-.645v-6.591a10.34 10.34 0 0 0 .645 0v6.591zm3.134 1.78v.722c0 .305-.25.553-.556.553h-5.8c-.307 0-.556-.248-.556-.553v-.722h6.913zm-2.745 4.494h-.721-.61c-.687 0-1.386-.603-1.386-1.286v-.152h4.009v.152a1.33 1.33 0 0 1-1.293 1.286zm-.712-26.788c5.328 0 9.662 4.309 9.662 9.605 0 3.368-1.81 6.532-4.724 8.258a2.95 2.95 0 0 0-1.482 2.593v.057h-1.343v-6.82c2.284-.531 3.871-1.907 3.871-3.563 0-1.552-1.27-2.814-2.831-2.814s-2.831 1.263-2.831 2.814v2.011c-.213.009-.433.009-.645 0v-2.011c0-1.552-1.27-2.814-2.831-2.814s-2.831 1.263-2.831 2.814c0 1.656 1.588 3.032 3.872 3.563v6.82h-1.343v-.057a2.95 2.95 0 0 0-1.482-2.593 9.65 9.65 0 0 1-4.724-8.258c-.001-5.297 4.333-9.605 9.661-9.605zm2.113 11.849v-1.718a1.04 1.04 0 0 1 2.08 0c.001.642-.814 1.334-2.08 1.718zm8.594-8.471c-.247-.426-.101-.97.328-1.216l2.371-1.361a.9.9 0 0 1 1.223.326c.247.426.101.97-.328 1.216l-2.371 1.36c-.141.081-.295.119-.447.119-.31.001-.611-.159-.777-.444zm2.593 5.267h2.738c.495 0 .895.398.895.89s-.401.89-.895.89h-2.738c-.495 0-.895-.398-.895-.89s.402-.89.895-.89zm1.073 8.101c.429.246.575.79.328 1.216-.166.286-.467.445-.777.445a.9.9 0 0 1-.447-.119l-2.371-1.361c-.429-.246-.575-.79-.328-1.216a.9.9 0 0 1 1.223-.326l2.371 1.361zm-25.082-.91c.247.426.101.97-.328 1.216l-2.371 1.361c-.141.081-.296.119-.447.119a.9.9 0 0 1-.777-.445c-.247-.426-.101-.97.328-1.216l2.371-1.361a.9.9 0 0 1 1.223.326zM13.998 3.175a.9.9 0 0 1 1.223-.326l2.371 1.361c.429.246.575.79.328 1.216-.166.286-.467.445-.777.445a.9.9 0 0 1-.447-.119l-2.371-1.361a.89.89 0 0 1-.328-1.216zm-2.263 8.396c0-.492.401-.89.895-.89h2.738c.495 0 .896.398.896.89s-.401.89-.896.89H12.63c-.494 0-.895-.398-.895-.89z" fill="#c82249"/><path d="M57.116 51.187c-.369-4.889-3.839-8.911-8.393-10.205 2.092-1.119 3.518-3.317 3.518-5.84 0-3.654-2.991-6.627-6.667-6.627s-6.667 2.973-6.667 6.627c0 2.523 1.425 4.72 3.517 5.84-2.915.825-5.428 2.772-6.943 5.454a11.96 11.96 0 0 0-3.66-1.727c2.187-1.139 3.683-3.418 3.683-6.038 0-3.758-3.075-6.814-6.855-6.814s-6.855 3.057-6.855 6.814c0 2.621 1.497 4.898 3.683 6.038-1.323.367-2.559.957-3.66 1.727a11.61 11.61 0 0 0-6.943-5.454c2.092-1.119 3.517-3.317 3.517-5.84 0-3.654-2.991-6.627-6.667-6.627s-6.667 2.973-6.667 6.627c0 2.523 1.426 4.72 3.518 5.84C4.022 42.276.552 46.296.182 51.187a1.63 1.63 0 0 0 .432 1.232c.309.331.748.521 1.203.521h15.351a11.73 11.73 0 0 0-.409 2.3c-.035.459.125.915.439 1.251s.759.529 1.221.529h20.457c.463 0 .908-.192 1.221-.529s.473-.791.439-1.251a11.64 11.64 0 0 0-.409-2.3H55.48a1.65 1.65 0 0 0 1.203-.521c.308-.331.467-.78.433-1.232zM40.698 35.142c0-2.673 2.187-4.847 4.876-4.847s4.876 2.174 4.876 4.847-2.187 4.847-4.876 4.847-4.876-2.174-4.876-4.847zm-17.112 3.529c0-2.776 2.272-5.034 5.064-5.034s5.064 2.258 5.064 5.034-2.271 5.034-5.064 5.034-5.064-2.259-5.064-5.034zM6.848 35.142c0-2.673 2.187-4.847 4.876-4.847s4.876 2.174 4.876 4.847-2.187 4.847-4.876 4.847-4.876-2.174-4.876-4.847zm10.985 16.017H1.982c.458-4.967 4.707-8.835 9.743-8.835a9.81 9.81 0 0 1 8.685 5.266 11.93 11.93 0 0 0-2.577 3.57zm.724 4.079c.46-5.16 4.866-9.181 10.092-9.181s9.632 4.022 10.092 9.181H18.557zm20.908-4.079c-.631-1.346-1.511-2.555-2.576-3.571a9.81 9.81 0 0 1 8.685-5.266c5.036 0 9.284 3.868 9.743 8.835H39.465v.001zM22.773 21.442a1.18 1.18 0 0 1 .608 1.064v2.559c0 .971.6 1.805 1.452 2.155v.33c0 1.665 1.452 2.379 3.127 2.379h1.429c1.675 0 3.037-.715 3.037-2.379v-.33c.851-.351 1.452-1.184 1.452-2.155v-2.559a1.18 1.18 0 0 1 .608-1.064c3.453-2.045 5.598-5.795 5.598-9.788 0-6.278-5.139-11.386-11.454-11.386S17.175 5.376 17.175 11.654c0 3.993 2.145 7.743 5.598 9.788zm3.742-7.544c-1.266-.384-2.081-1.077-2.081-1.718a1.04 1.04 0 0 1 1.04-1.034 1.04 1.04 0 0 1 1.04 1.034v1.718h.001zm2.436 8.665h-.645v-6.591a10.34 10.34 0 0 0 .645 0v6.591zm3.134 1.78v.722c0 .305-.25.553-.556.553h-5.8c-.307 0-.556-.248-.556-.553v-.722h6.913zm-2.745 4.494h-.721-.61c-.687 0-1.386-.603-1.386-1.286v-.152h4.009v.152a1.33 1.33 0 0 1-1.293 1.286zm-.712-26.788c5.328 0 9.662 4.309 9.662 9.605 0 3.368-1.81 6.532-4.724 8.258a2.95 2.95 0 0 0-1.482 2.593v.057h-1.343v-6.82c2.284-.531 3.871-1.907 3.871-3.563 0-1.552-1.27-2.814-2.831-2.814s-2.831 1.263-2.831 2.814v2.011c-.213.009-.433.009-.645 0v-2.011c0-1.552-1.27-2.814-2.831-2.814s-2.831 1.263-2.831 2.814c0 1.656 1.588 3.032 3.872 3.563v6.82h-1.343v-.057a2.95 2.95 0 0 0-1.482-2.593 9.65 9.65 0 0 1-4.724-8.258c-.001-5.297 4.333-9.605 9.661-9.605zm2.113 11.849v-1.718a1.04 1.04 0 0 1 2.08 0c.001.642-.814 1.334-2.08 1.718zm8.594-8.471c-.247-.426-.101-.97.328-1.216l2.371-1.361a.9.9 0 0 1 1.223.326c.247.426.101.97-.328 1.216l-2.371 1.36c-.141.081-.295.119-.447.119-.31.001-.611-.159-.777-.444zm2.593 5.267h2.738c.495 0 .895.398.895.89s-.401.89-.895.89h-2.738c-.495 0-.895-.398-.895-.89s.402-.89.895-.89zm1.073 8.101c.429.246.575.79.328 1.216-.166.286-.467.445-.777.445a.9.9 0 0 1-.447-.119l-2.371-1.361c-.429-.246-.575-.79-.328-1.216a.9.9 0 0 1 1.223-.326l2.371 1.361zm-25.082-.91c.247.426.101.97-.328 1.216l-2.371 1.361c-.141.081-.296.119-.447.119a.9.9 0 0 1-.777-.445c-.247-.426-.101-.97.328-1.216l2.371-1.361a.9.9 0 0 1 1.223.326zM13.998 3.175a.9.9 0 0 1 1.223-.326l2.371 1.361c.429.246.575.79.328 1.216-.166.286-.467.445-.777.445a.9.9 0 0 1-.447-.119l-2.371-1.361a.89.89 0 0 1-.328-1.216zm-2.263 8.396c0-.492.401-.89.895-.89h2.738c.495 0 .896.398.896.89s-.401.89-.896.89H12.63c-.494 0-.895-.398-.895-.89z" stroke="#c82249" stroke-width=".2" mask="url(#A)"/><g fill="#f7f6f3"><path d="M31.363 22.467h-5.384l-1.412-5.862-3.822-3.036 1.468-4.983 8.603-.63 6.212 3.151-4.142 4.85-1.525 6.511z"/><rect x="24.873" y="23.656" width="7.847" height="2.382" rx="1"/></g></svg>