<svg width="58" height="57" viewBox="0 0 58 57" fill="none" xmlns="http://www.w3.org/2000/svg">
<g clip-path="url(#clip0_84_3844)">
<mask id="path-1-outside-1_84_3844" maskUnits="userSpaceOnUse" x="-0.460938" y="-0.980469" width="59" height="59" fill="black">
<rect fill="white" x="-0.460938" y="-0.980469" width="59" height="59"/>
<path d="M20.3595 13.4241C20.1955 13.9289 20.3569 14.4699 20.7706 14.8025L24.454 17.763L23.2142 22.3232C23.0751 22.8352 23.2625 23.3678 23.6921 23.6802C24.1218 23.9919 24.6859 24.0057 25.13 23.7151L29.0839 21.1268L33.0379 23.7152C33.2511 23.8547 33.4918 23.924 33.7321 23.924C33.9925 23.924 34.2524 23.8425 34.4756 23.6802C34.9054 23.3681 35.0929 22.8352 34.9534 22.3232L33.7137 17.7631L37.3968 14.8027C37.8108 14.4702 37.9723 13.9291 37.8082 13.4241C37.6441 12.919 37.1955 12.5762 36.6653 12.5505L31.9452 12.3204L30.2678 7.90255C30.0795 7.40627 29.6146 7.08548 29.0838 7.08548C28.5529 7.08548 28.0881 7.40615 27.8999 7.90244L26.2224 12.3205L21.5026 12.5505C20.9722 12.5762 20.5235 12.919 20.3595 13.4241ZM26.6476 14.0858C27.1507 14.0612 27.5912 13.7411 27.7697 13.2704L29.0837 9.80997L30.3976 13.2707C30.5764 13.7413 31.0171 14.0612 31.5197 14.0858L35.2167 14.2661L32.3315 16.5849C31.9389 16.9006 31.7708 17.4185 31.9029 17.9042L32.874 21.476L29.777 19.4486C29.5663 19.3107 29.3249 19.2418 29.0835 19.2418C28.8421 19.2418 28.6005 19.3109 28.3898 19.4487L25.293 21.476L26.2641 17.9044C26.3963 17.4184 26.228 16.9003 25.8353 16.5849L22.9503 14.2662L26.6476 14.0858ZM28.1917 4.18493V0.911528C28.1917 0.418923 28.591 0.0195312 29.0837 0.0195312C29.5763 0.0195312 29.9757 0.418923 29.9757 0.911528V4.18493C29.9757 4.67754 29.5763 5.07693 29.0837 5.07693C28.591 5.07693 28.1917 4.67754 28.1917 4.18493ZM33.6238 9.46979C33.2942 9.10373 33.3238 8.53966 33.6898 8.21007L37.3375 4.92551C37.7037 4.59581 38.2677 4.62536 38.5974 4.99152C38.9269 5.35757 38.8974 5.92165 38.5313 6.25124L34.8835 9.5358C34.713 9.68933 34.4996 9.76493 34.2869 9.76493C34.043 9.76493 33.8 9.66547 33.6238 9.46979ZM19.57 4.99152C19.8995 4.62536 20.4635 4.59581 20.8298 4.92551L24.4776 8.21007C24.8437 8.53966 24.8732 9.10373 24.5436 9.46979C24.3674 9.66536 24.1244 9.76493 23.8804 9.76493C23.6678 9.76493 23.4544 9.68933 23.2838 9.5358L19.636 6.25124C19.2698 5.92165 19.2404 5.35757 19.57 4.99152ZM40.5273 14.8025L44.2107 17.763L42.9709 22.3232C42.8318 22.8352 43.0192 23.3678 43.4488 23.6802C43.8782 23.9919 44.4424 24.0055 44.8867 23.7151L48.8406 21.1268L52.7946 23.7152C53.0078 23.8547 53.2485 23.924 53.4888 23.924C53.7493 23.924 54.0092 23.8425 54.2323 23.6802C54.6619 23.3683 54.8494 22.8357 54.7102 22.3232L53.4704 17.7631L57.1536 14.8027C57.5674 14.4703 57.7289 13.9292 57.5648 13.4241C57.4008 12.919 56.9521 12.5762 56.422 12.5505L51.7019 12.3204L50.0246 7.90255C49.8363 7.40627 49.3714 7.08548 48.8406 7.08548C48.3096 7.08548 47.8448 7.40615 47.6565 7.90244L45.9792 12.3204L41.2594 12.5504C40.7289 12.5761 40.2802 12.919 40.1162 13.4241C39.9521 13.9291 40.1135 14.4702 40.5273 14.8025ZM46.4042 14.0858C46.9074 14.0612 47.3481 13.7411 47.5267 13.2703L48.8405 9.80986L50.1542 13.2701C50.3329 13.7411 50.7736 14.0612 51.2765 14.0856L54.9735 14.2659L52.0887 16.5846C51.6959 16.9001 51.5275 17.4181 51.6598 17.9041L52.6308 21.4758L49.5338 19.4484C49.3231 19.3106 49.0817 19.2417 48.8403 19.2417C48.5988 19.2417 48.3572 19.3107 48.1466 19.4486L45.0498 21.4758L46.0209 17.9043C46.153 17.4185 45.9849 16.9006 45.5922 16.5848L42.7071 14.2659L46.4042 14.0858ZM1.01364 14.8025L4.69703 17.763L3.45726 22.3232C3.31811 22.8352 3.50554 23.3678 3.93515 23.6802C4.36487 23.9919 4.92895 24.0057 5.37305 23.7151L9.32693 21.1268L13.2809 23.7152C13.4941 23.8547 13.7348 23.924 13.9751 23.924C14.2356 23.924 14.4955 23.8425 14.7186 23.6802C15.1482 23.3683 15.3358 22.8357 15.1965 22.3232L13.9567 17.7631L17.6399 14.8027C18.0536 14.4705 18.2151 13.9295 18.0511 13.4236C17.8868 12.9188 17.4381 12.5761 16.9083 12.5504L12.1882 12.3203L10.5109 7.90255C10.3226 7.40627 9.85778 7.08548 9.32693 7.08548C8.79597 7.08548 8.33113 7.40615 8.14281 7.90244L6.46552 12.3204L1.74574 12.5504C1.21534 12.5761 0.766666 12.919 0.602762 13.4236C0.4383 13.9288 0.59964 14.4701 1.01364 14.8025ZM6.89056 14.0858C7.39375 14.0612 7.8344 13.7411 8.01302 13.2703L9.32682 9.80986L10.6405 13.2701C10.8192 13.7411 11.2599 14.0612 11.7629 14.0856L15.4599 14.2659L12.575 16.5846C12.1822 16.9001 12.0139 17.4181 12.1461 17.9041L13.1171 21.4758L10.0201 19.4484C9.80939 19.3106 9.568 19.2417 9.3266 19.2417C9.08509 19.2417 8.84358 19.3107 8.63296 19.4486L5.53617 21.4758L6.50722 17.9043C6.63935 17.4185 6.47121 16.9006 6.07851 16.5848L3.19345 14.2659L6.89056 14.0858ZM57.4872 47.3994C56.8595 45.3725 55.5741 43.5526 53.8673 42.2746C53.0503 41.6628 52.1605 41.1863 51.2219 40.8489C52.5232 39.8276 53.3617 38.242 53.3617 36.4633C53.3617 33.3897 50.8611 30.8892 47.7876 30.8892C44.714 30.8892 42.2134 33.3897 42.2134 36.4633C42.2134 38.2399 43.0499 39.8239 44.3486 40.8453C42.608 41.4666 41.066 42.5582 39.8851 44.0291C39.3331 43.2569 38.6965 42.5398 37.9808 41.8925C36.5386 40.5883 34.8462 39.6305 33.0235 39.0644C34.9563 37.7831 36.2341 35.5891 36.2341 33.1015C36.2341 29.1588 33.0264 25.9512 29.0838 25.9512C25.1411 25.9512 21.9334 29.1588 21.9334 33.1015C21.9334 35.5891 23.2111 37.7831 25.1439 39.0644C23.3211 39.6304 21.6287 40.5883 20.1865 41.8925C19.4708 42.5398 18.8342 43.2569 18.2824 44.029C17.1016 42.558 15.5595 41.4664 13.8188 40.845C15.1174 39.8235 15.954 38.2396 15.954 36.4629C15.954 33.3893 13.4534 30.8889 10.3799 30.8889C7.30634 30.8889 4.80574 33.3893 4.80574 36.4629C4.80574 38.2416 5.64422 39.8272 6.94542 40.8486C6.00681 41.186 5.11704 41.6625 4.29986 42.2743C2.59314 43.5522 1.30766 45.3722 0.680031 47.3989C0.390021 48.3351 0.550692 49.2852 1.13238 50.0744C1.71397 50.8633 2.57407 51.2977 3.55416 51.2977H15.8852V52.9076C15.8852 55.2234 17.7692 57.1074 20.0851 57.1074H38.0822C40.398 57.1074 42.2821 55.2234 42.2822 52.9076V51.2982H54.6132C55.5933 51.2982 56.4535 50.8637 57.0349 50.0748C57.6165 49.2856 57.7772 48.3354 57.4872 47.3994ZM47.7876 32.6732C49.8774 32.6732 51.5777 34.3734 51.5777 36.4633C51.5777 38.5532 49.8774 40.2535 47.7876 40.2535C45.6976 40.2535 43.9974 38.5532 43.9974 36.4633C43.9974 34.3734 45.6976 32.6732 47.7876 32.6732ZM23.7174 33.1015C23.7174 30.1425 26.1248 27.7352 29.0838 27.7352C32.0427 27.7352 34.4501 30.1425 34.4501 33.1015C34.4501 36.0595 32.0443 38.4661 29.0867 38.4677C29.0857 38.4677 29.0845 38.4677 29.0837 38.4677C29.0828 38.4677 29.0818 38.4677 29.0808 38.4677C26.1231 38.466 23.7174 36.0594 23.7174 33.1015ZM10.3799 32.6727C12.4698 32.6727 14.17 34.373 14.17 36.4628C14.17 38.5528 12.4698 40.253 10.3799 40.253C8.28999 40.253 6.58973 38.5528 6.58973 36.4628C6.58973 34.373 8.28999 32.6727 10.3799 32.6727ZM16.0011 49.5136H3.55427C3.14373 49.5136 2.81213 49.3462 2.5685 49.0157C2.32476 48.6852 2.26288 48.3188 2.3843 47.9267C3.47521 44.4038 6.68852 42.037 10.3799 42.037C13.1722 42.037 15.7159 43.3862 17.2803 45.67C16.6618 46.8715 16.2286 48.1666 16.0011 49.5136ZM40.4982 52.9075C40.4981 54.2395 39.4143 55.3233 38.0822 55.3233H20.0851C18.753 55.3233 17.6692 54.2395 17.6692 52.9075V50.4541C18.315 44.6352 23.2125 40.2531 29.0808 40.2517C29.0818 40.2517 29.0828 40.2518 29.0838 40.2518C29.0848 40.2518 29.0858 40.2517 29.0867 40.2517C34.9548 40.2533 39.8522 44.6352 40.4982 50.4541V52.9075ZM55.5989 49.0162C55.3553 49.3466 55.0238 49.5141 54.6132 49.5141H42.1665C41.9388 48.1669 41.5056 46.8719 40.8872 45.6702C42.4518 43.3865 44.9953 42.0375 47.7875 42.0375C51.4789 42.0375 54.6922 44.4044 55.7831 47.9272C55.9045 48.3191 55.8425 48.6855 55.5989 49.0162Z"/>
</mask>
<path d="M20.3595 13.4241C20.1955 13.9289 20.3569 14.4699 20.7706 14.8025L24.454 17.763L23.2142 22.3232C23.0751 22.8352 23.2625 23.3678 23.6921 23.6802C24.1218 23.9919 24.6859 24.0057 25.13 23.7151L29.0839 21.1268L33.0379 23.7152C33.2511 23.8547 33.4918 23.924 33.7321 23.924C33.9925 23.924 34.2524 23.8425 34.4756 23.6802C34.9054 23.3681 35.0929 22.8352 34.9534 22.3232L33.7137 17.7631L37.3968 14.8027C37.8108 14.4702 37.9723 13.9291 37.8082 13.4241C37.6441 12.919 37.1955 12.5762 36.6653 12.5505L31.9452 12.3204L30.2678 7.90255C30.0795 7.40627 29.6146 7.08548 29.0838 7.08548C28.5529 7.08548 28.0881 7.40615 27.8999 7.90244L26.2224 12.3205L21.5026 12.5505C20.9722 12.5762 20.5235 12.919 20.3595 13.4241ZM26.6476 14.0858C27.1507 14.0612 27.5912 13.7411 27.7697 13.2704L29.0837 9.80997L30.3976 13.2707C30.5764 13.7413 31.0171 14.0612 31.5197 14.0858L35.2167 14.2661L32.3315 16.5849C31.9389 16.9006 31.7708 17.4185 31.9029 17.9042L32.874 21.476L29.777 19.4486C29.5663 19.3107 29.3249 19.2418 29.0835 19.2418C28.8421 19.2418 28.6005 19.3109 28.3898 19.4487L25.293 21.476L26.2641 17.9044C26.3963 17.4184 26.228 16.9003 25.8353 16.5849L22.9503 14.2662L26.6476 14.0858ZM28.1917 4.18493V0.911528C28.1917 0.418923 28.591 0.0195312 29.0837 0.0195312C29.5763 0.0195312 29.9757 0.418923 29.9757 0.911528V4.18493C29.9757 4.67754 29.5763 5.07693 29.0837 5.07693C28.591 5.07693 28.1917 4.67754 28.1917 4.18493ZM33.6238 9.46979C33.2942 9.10373 33.3238 8.53966 33.6898 8.21007L37.3375 4.92551C37.7037 4.59581 38.2677 4.62536 38.5974 4.99152C38.9269 5.35757 38.8974 5.92165 38.5313 6.25124L34.8835 9.5358C34.713 9.68933 34.4996 9.76493 34.2869 9.76493C34.043 9.76493 33.8 9.66547 33.6238 9.46979ZM19.57 4.99152C19.8995 4.62536 20.4635 4.59581 20.8298 4.92551L24.4776 8.21007C24.8437 8.53966 24.8732 9.10373 24.5436 9.46979C24.3674 9.66536 24.1244 9.76493 23.8804 9.76493C23.6678 9.76493 23.4544 9.68933 23.2838 9.5358L19.636 6.25124C19.2698 5.92165 19.2404 5.35757 19.57 4.99152ZM40.5273 14.8025L44.2107 17.763L42.9709 22.3232C42.8318 22.8352 43.0192 23.3678 43.4488 23.6802C43.8782 23.9919 44.4424 24.0055 44.8867 23.7151L48.8406 21.1268L52.7946 23.7152C53.0078 23.8547 53.2485 23.924 53.4888 23.924C53.7493 23.924 54.0092 23.8425 54.2323 23.6802C54.6619 23.3683 54.8494 22.8357 54.7102 22.3232L53.4704 17.7631L57.1536 14.8027C57.5674 14.4703 57.7289 13.9292 57.5648 13.4241C57.4008 12.919 56.9521 12.5762 56.422 12.5505L51.7019 12.3204L50.0246 7.90255C49.8363 7.40627 49.3714 7.08548 48.8406 7.08548C48.3096 7.08548 47.8448 7.40615 47.6565 7.90244L45.9792 12.3204L41.2594 12.5504C40.7289 12.5761 40.2802 12.919 40.1162 13.4241C39.9521 13.9291 40.1135 14.4702 40.5273 14.8025ZM46.4042 14.0858C46.9074 14.0612 47.3481 13.7411 47.5267 13.2703L48.8405 9.80986L50.1542 13.2701C50.3329 13.7411 50.7736 14.0612 51.2765 14.0856L54.9735 14.2659L52.0887 16.5846C51.6959 16.9001 51.5275 17.4181 51.6598 17.9041L52.6308 21.4758L49.5338 19.4484C49.3231 19.3106 49.0817 19.2417 48.8403 19.2417C48.5988 19.2417 48.3572 19.3107 48.1466 19.4486L45.0498 21.4758L46.0209 17.9043C46.153 17.4185 45.9849 16.9006 45.5922 16.5848L42.7071 14.2659L46.4042 14.0858ZM1.01364 14.8025L4.69703 17.763L3.45726 22.3232C3.31811 22.8352 3.50554 23.3678 3.93515 23.6802C4.36487 23.9919 4.92895 24.0057 5.37305 23.7151L9.32693 21.1268L13.2809 23.7152C13.4941 23.8547 13.7348 23.924 13.9751 23.924C14.2356 23.924 14.4955 23.8425 14.7186 23.6802C15.1482 23.3683 15.3358 22.8357 15.1965 22.3232L13.9567 17.7631L17.6399 14.8027C18.0536 14.4705 18.2151 13.9295 18.0511 13.4236C17.8868 12.9188 17.4381 12.5761 16.9083 12.5504L12.1882 12.3203L10.5109 7.90255C10.3226 7.40627 9.85778 7.08548 9.32693 7.08548C8.79597 7.08548 8.33113 7.40615 8.14281 7.90244L6.46552 12.3204L1.74574 12.5504C1.21534 12.5761 0.766666 12.919 0.602762 13.4236C0.4383 13.9288 0.59964 14.4701 1.01364 14.8025ZM6.89056 14.0858C7.39375 14.0612 7.8344 13.7411 8.01302 13.2703L9.32682 9.80986L10.6405 13.2701C10.8192 13.7411 11.2599 14.0612 11.7629 14.0856L15.4599 14.2659L12.575 16.5846C12.1822 16.9001 12.0139 17.4181 12.1461 17.9041L13.1171 21.4758L10.0201 19.4484C9.80939 19.3106 9.568 19.2417 9.3266 19.2417C9.08509 19.2417 8.84358 19.3107 8.63296 19.4486L5.53617 21.4758L6.50722 17.9043C6.63935 17.4185 6.47121 16.9006 6.07851 16.5848L3.19345 14.2659L6.89056 14.0858ZM57.4872 47.3994C56.8595 45.3725 55.5741 43.5526 53.8673 42.2746C53.0503 41.6628 52.1605 41.1863 51.2219 40.8489C52.5232 39.8276 53.3617 38.242 53.3617 36.4633C53.3617 33.3897 50.8611 30.8892 47.7876 30.8892C44.714 30.8892 42.2134 33.3897 42.2134 36.4633C42.2134 38.2399 43.0499 39.8239 44.3486 40.8453C42.608 41.4666 41.066 42.5582 39.8851 44.0291C39.3331 43.2569 38.6965 42.5398 37.9808 41.8925C36.5386 40.5883 34.8462 39.6305 33.0235 39.0644C34.9563 37.7831 36.2341 35.5891 36.2341 33.1015C36.2341 29.1588 33.0264 25.9512 29.0838 25.9512C25.1411 25.9512 21.9334 29.1588 21.9334 33.1015C21.9334 35.5891 23.2111 37.7831 25.1439 39.0644C23.3211 39.6304 21.6287 40.5883 20.1865 41.8925C19.4708 42.5398 18.8342 43.2569 18.2824 44.029C17.1016 42.558 15.5595 41.4664 13.8188 40.845C15.1174 39.8235 15.954 38.2396 15.954 36.4629C15.954 33.3893 13.4534 30.8889 10.3799 30.8889C7.30634 30.8889 4.80574 33.3893 4.80574 36.4629C4.80574 38.2416 5.64422 39.8272 6.94542 40.8486C6.00681 41.186 5.11704 41.6625 4.29986 42.2743C2.59314 43.5522 1.30766 45.3722 0.680031 47.3989C0.390021 48.3351 0.550692 49.2852 1.13238 50.0744C1.71397 50.8633 2.57407 51.2977 3.55416 51.2977H15.8852V52.9076C15.8852 55.2234 17.7692 57.1074 20.0851 57.1074H38.0822C40.398 57.1074 42.2821 55.2234 42.2822 52.9076V51.2982H54.6132C55.5933 51.2982 56.4535 50.8637 57.0349 50.0748C57.6165 49.2856 57.7772 48.3354 57.4872 47.3994ZM47.7876 32.6732C49.8774 32.6732 51.5777 34.3734 51.5777 36.4633C51.5777 38.5532 49.8774 40.2535 47.7876 40.2535C45.6976 40.2535 43.9974 38.5532 43.9974 36.4633C43.9974 34.3734 45.6976 32.6732 47.7876 32.6732ZM23.7174 33.1015C23.7174 30.1425 26.1248 27.7352 29.0838 27.7352C32.0427 27.7352 34.4501 30.1425 34.4501 33.1015C34.4501 36.0595 32.0443 38.4661 29.0867 38.4677C29.0857 38.4677 29.0845 38.4677 29.0837 38.4677C29.0828 38.4677 29.0818 38.4677 29.0808 38.4677C26.1231 38.466 23.7174 36.0594 23.7174 33.1015ZM10.3799 32.6727C12.4698 32.6727 14.17 34.373 14.17 36.4628C14.17 38.5528 12.4698 40.253 10.3799 40.253C8.28999 40.253 6.58973 38.5528 6.58973 36.4628C6.58973 34.373 8.28999 32.6727 10.3799 32.6727ZM16.0011 49.5136H3.55427C3.14373 49.5136 2.81213 49.3462 2.5685 49.0157C2.32476 48.6852 2.26288 48.3188 2.3843 47.9267C3.47521 44.4038 6.68852 42.037 10.3799 42.037C13.1722 42.037 15.7159 43.3862 17.2803 45.67C16.6618 46.8715 16.2286 48.1666 16.0011 49.5136ZM40.4982 52.9075C40.4981 54.2395 39.4143 55.3233 38.0822 55.3233H20.0851C18.753 55.3233 17.6692 54.2395 17.6692 52.9075V50.4541C18.315 44.6352 23.2125 40.2531 29.0808 40.2517C29.0818 40.2517 29.0828 40.2518 29.0838 40.2518C29.0848 40.2518 29.0858 40.2517 29.0867 40.2517C34.9548 40.2533 39.8522 44.6352 40.4982 50.4541V52.9075ZM55.5989 49.0162C55.3553 49.3466 55.0238 49.5141 54.6132 49.5141H42.1665C41.9388 48.1669 41.5056 46.8719 40.8872 45.6702C42.4518 43.3865 44.9953 42.0375 47.7875 42.0375C51.4789 42.0375 54.6922 44.4044 55.7831 47.9272C55.9045 48.3191 55.8425 48.6855 55.5989 49.0162Z" fill="#C82249"/>
<path d="M20.3595 13.4241C20.1955 13.9289 20.3569 14.4699 20.7706 14.8025L24.454 17.763L23.2142 22.3232C23.0751 22.8352 23.2625 23.3678 23.6921 23.6802C24.1218 23.9919 24.6859 24.0057 25.13 23.7151L29.0839 21.1268L33.0379 23.7152C33.2511 23.8547 33.4918 23.924 33.7321 23.924C33.9925 23.924 34.2524 23.8425 34.4756 23.6802C34.9054 23.3681 35.0929 22.8352 34.9534 22.3232L33.7137 17.7631L37.3968 14.8027C37.8108 14.4702 37.9723 13.9291 37.8082 13.4241C37.6441 12.919 37.1955 12.5762 36.6653 12.5505L31.9452 12.3204L30.2678 7.90255C30.0795 7.40627 29.6146 7.08548 29.0838 7.08548C28.5529 7.08548 28.0881 7.40615 27.8999 7.90244L26.2224 12.3205L21.5026 12.5505C20.9722 12.5762 20.5235 12.919 20.3595 13.4241ZM26.6476 14.0858C27.1507 14.0612 27.5912 13.7411 27.7697 13.2704L29.0837 9.80997L30.3976 13.2707C30.5764 13.7413 31.0171 14.0612 31.5197 14.0858L35.2167 14.2661L32.3315 16.5849C31.9389 16.9006 31.7708 17.4185 31.9029 17.9042L32.874 21.476L29.777 19.4486C29.5663 19.3107 29.3249 19.2418 29.0835 19.2418C28.8421 19.2418 28.6005 19.3109 28.3898 19.4487L25.293 21.476L26.2641 17.9044C26.3963 17.4184 26.228 16.9003 25.8353 16.5849L22.9503 14.2662L26.6476 14.0858ZM28.1917 4.18493V0.911528C28.1917 0.418923 28.591 0.0195312 29.0837 0.0195312C29.5763 0.0195312 29.9757 0.418923 29.9757 0.911528V4.18493C29.9757 4.67754 29.5763 5.07693 29.0837 5.07693C28.591 5.07693 28.1917 4.67754 28.1917 4.18493ZM33.6238 9.46979C33.2942 9.10373 33.3238 8.53966 33.6898 8.21007L37.3375 4.92551C37.7037 4.59581 38.2677 4.62536 38.5974 4.99152C38.9269 5.35757 38.8974 5.92165 38.5313 6.25124L34.8835 9.5358C34.713 9.68933 34.4996 9.76493 34.2869 9.76493C34.043 9.76493 33.8 9.66547 33.6238 9.46979ZM19.57 4.99152C19.8995 4.62536 20.4635 4.59581 20.8298 4.92551L24.4776 8.21007C24.8437 8.53966 24.8732 9.10373 24.5436 9.46979C24.3674 9.66536 24.1244 9.76493 23.8804 9.76493C23.6678 9.76493 23.4544 9.68933 23.2838 9.5358L19.636 6.25124C19.2698 5.92165 19.2404 5.35757 19.57 4.99152ZM40.5273 14.8025L44.2107 17.763L42.9709 22.3232C42.8318 22.8352 43.0192 23.3678 43.4488 23.6802C43.8782 23.9919 44.4424 24.0055 44.8867 23.7151L48.8406 21.1268L52.7946 23.7152C53.0078 23.8547 53.2485 23.924 53.4888 23.924C53.7493 23.924 54.0092 23.8425 54.2323 23.6802C54.6619 23.3683 54.8494 22.8357 54.7102 22.3232L53.4704 17.7631L57.1536 14.8027C57.5674 14.4703 57.7289 13.9292 57.5648 13.4241C57.4008 12.919 56.9521 12.5762 56.422 12.5505L51.7019 12.3204L50.0246 7.90255C49.8363 7.40627 49.3714 7.08548 48.8406 7.08548C48.3096 7.08548 47.8448 7.40615 47.6565 7.90244L45.9792 12.3204L41.2594 12.5504C40.7289 12.5761 40.2802 12.919 40.1162 13.4241C39.9521 13.9291 40.1135 14.4702 40.5273 14.8025ZM46.4042 14.0858C46.9074 14.0612 47.3481 13.7411 47.5267 13.2703L48.8405 9.80986L50.1542 13.2701C50.3329 13.7411 50.7736 14.0612 51.2765 14.0856L54.9735 14.2659L52.0887 16.5846C51.6959 16.9001 51.5275 17.4181 51.6598 17.9041L52.6308 21.4758L49.5338 19.4484C49.3231 19.3106 49.0817 19.2417 48.8403 19.2417C48.5988 19.2417 48.3572 19.3107 48.1466 19.4486L45.0498 21.4758L46.0209 17.9043C46.153 17.4185 45.9849 16.9006 45.5922 16.5848L42.7071 14.2659L46.4042 14.0858ZM1.01364 14.8025L4.69703 17.763L3.45726 22.3232C3.31811 22.8352 3.50554 23.3678 3.93515 23.6802C4.36487 23.9919 4.92895 24.0057 5.37305 23.7151L9.32693 21.1268L13.2809 23.7152C13.4941 23.8547 13.7348 23.924 13.9751 23.924C14.2356 23.924 14.4955 23.8425 14.7186 23.6802C15.1482 23.3683 15.3358 22.8357 15.1965 22.3232L13.9567 17.7631L17.6399 14.8027C18.0536 14.4705 18.2151 13.9295 18.0511 13.4236C17.8868 12.9188 17.4381 12.5761 16.9083 12.5504L12.1882 12.3203L10.5109 7.90255C10.3226 7.40627 9.85778 7.08548 9.32693 7.08548C8.79597 7.08548 8.33113 7.40615 8.14281 7.90244L6.46552 12.3204L1.74574 12.5504C1.21534 12.5761 0.766666 12.919 0.602762 13.4236C0.4383 13.9288 0.59964 14.4701 1.01364 14.8025ZM6.89056 14.0858C7.39375 14.0612 7.8344 13.7411 8.01302 13.2703L9.32682 9.80986L10.6405 13.2701C10.8192 13.7411 11.2599 14.0612 11.7629 14.0856L15.4599 14.2659L12.575 16.5846C12.1822 16.9001 12.0139 17.4181 12.1461 17.9041L13.1171 21.4758L10.0201 19.4484C9.80939 19.3106 9.568 19.2417 9.3266 19.2417C9.08509 19.2417 8.84358 19.3107 8.63296 19.4486L5.53617 21.4758L6.50722 17.9043C6.63935 17.4185 6.47121 16.9006 6.07851 16.5848L3.19345 14.2659L6.89056 14.0858ZM57.4872 47.3994C56.8595 45.3725 55.5741 43.5526 53.8673 42.2746C53.0503 41.6628 52.1605 41.1863 51.2219 40.8489C52.5232 39.8276 53.3617 38.242 53.3617 36.4633C53.3617 33.3897 50.8611 30.8892 47.7876 30.8892C44.714 30.8892 42.2134 33.3897 42.2134 36.4633C42.2134 38.2399 43.0499 39.8239 44.3486 40.8453C42.608 41.4666 41.066 42.5582 39.8851 44.0291C39.3331 43.2569 38.6965 42.5398 37.9808 41.8925C36.5386 40.5883 34.8462 39.6305 33.0235 39.0644C34.9563 37.7831 36.2341 35.5891 36.2341 33.1015C36.2341 29.1588 33.0264 25.9512 29.0838 25.9512C25.1411 25.9512 21.9334 29.1588 21.9334 33.1015C21.9334 35.5891 23.2111 37.7831 25.1439 39.0644C23.3211 39.6304 21.6287 40.5883 20.1865 41.8925C19.4708 42.5398 18.8342 43.2569 18.2824 44.029C17.1016 42.558 15.5595 41.4664 13.8188 40.845C15.1174 39.8235 15.954 38.2396 15.954 36.4629C15.954 33.3893 13.4534 30.8889 10.3799 30.8889C7.30634 30.8889 4.80574 33.3893 4.80574 36.4629C4.80574 38.2416 5.64422 39.8272 6.94542 40.8486C6.00681 41.186 5.11704 41.6625 4.29986 42.2743C2.59314 43.5522 1.30766 45.3722 0.680031 47.3989C0.390021 48.3351 0.550692 49.2852 1.13238 50.0744C1.71397 50.8633 2.57407 51.2977 3.55416 51.2977H15.8852V52.9076C15.8852 55.2234 17.7692 57.1074 20.0851 57.1074H38.0822C40.398 57.1074 42.2821 55.2234 42.2822 52.9076V51.2982H54.6132C55.5933 51.2982 56.4535 50.8637 57.0349 50.0748C57.6165 49.2856 57.7772 48.3354 57.4872 47.3994ZM47.7876 32.6732C49.8774 32.6732 51.5777 34.3734 51.5777 36.4633C51.5777 38.5532 49.8774 40.2535 47.7876 40.2535C45.6976 40.2535 43.9974 38.5532 43.9974 36.4633C43.9974 34.3734 45.6976 32.6732 47.7876 32.6732ZM23.7174 33.1015C23.7174 30.1425 26.1248 27.7352 29.0838 27.7352C32.0427 27.7352 34.4501 30.1425 34.4501 33.1015C34.4501 36.0595 32.0443 38.4661 29.0867 38.4677C29.0857 38.4677 29.0845 38.4677 29.0837 38.4677C29.0828 38.4677 29.0818 38.4677 29.0808 38.4677C26.1231 38.466 23.7174 36.0594 23.7174 33.1015ZM10.3799 32.6727C12.4698 32.6727 14.17 34.373 14.17 36.4628C14.17 38.5528 12.4698 40.253 10.3799 40.253C8.28999 40.253 6.58973 38.5528 6.58973 36.4628C6.58973 34.373 8.28999 32.6727 10.3799 32.6727ZM16.0011 49.5136H3.55427C3.14373 49.5136 2.81213 49.3462 2.5685 49.0157C2.32476 48.6852 2.26288 48.3188 2.3843 47.9267C3.47521 44.4038 6.68852 42.037 10.3799 42.037C13.1722 42.037 15.7159 43.3862 17.2803 45.67C16.6618 46.8715 16.2286 48.1666 16.0011 49.5136ZM40.4982 52.9075C40.4981 54.2395 39.4143 55.3233 38.0822 55.3233H20.0851C18.753 55.3233 17.6692 54.2395 17.6692 52.9075V50.4541C18.315 44.6352 23.2125 40.2531 29.0808 40.2517C29.0818 40.2517 29.0828 40.2518 29.0838 40.2518C29.0848 40.2518 29.0858 40.2517 29.0867 40.2517C34.9548 40.2533 39.8522 44.6352 40.4982 50.4541V52.9075ZM55.5989 49.0162C55.3553 49.3466 55.0238 49.5141 54.6132 49.5141H42.1665C41.9388 48.1669 41.5056 46.8719 40.8872 45.6702C42.4518 43.3865 44.9953 42.0375 47.7875 42.0375C51.4789 42.0375 54.6922 44.4044 55.7831 47.9272C55.9045 48.3191 55.8425 48.6855 55.5989 49.0162Z" stroke="#C82249" stroke-width="0.2" mask="url(#path-1-outside-1_84_3844)"/>
</g>
<rect x="5.22852" y="13.0742" width="3.55078" height="3.55078" fill="#C8254B"/>
<rect x="5.22852" y="18.9121" width="3.55078" height="3.55078" fill="#C8254B"/>
<rect x="5.22852" y="24.75" width="3.55078" height="3.55078" fill="#C8254B"/>
<rect x="11.9648" y="13.0742" width="3.55078" height="3.55078" fill="#C8254B"/>
<rect x="18.7012" y="13.0742" width="3.55078" height="3.55078" fill="#C8254B"/>
<rect x="11.9648" y="18.9121" width="3.55078" height="3.55078" fill="#C8254B"/>
<rect x="18.7012" y="18.9121" width="3.55078" height="3.55078" fill="#C8254B"/>
<rect x="11.9648" y="24.75" width="3.55078" height="3.55078" fill="#C8254B"/>
<rect x="18.7012" y="24.75" width="3.55078" height="3.55078" fill="#C8254B"/>
<rect x="41.1914" y="5.46094" width="3.55078" height="3.55078" fill="#C8254B"/>
<rect x="41.1914" y="11.2988" width="3.55078" height="3.55078" fill="#C8254B"/>
<rect x="41.1914" y="17.1367" width="3.55078" height="3.55078" fill="#C8254B"/>
<rect x="41.1914" y="22.9746" width="3.55078" height="3.55078" fill="#C8254B"/>
<rect x="47.9277" y="5.46094" width="3.55078" height="3.55078" fill="#C8254B"/>
<rect x="47.9277" y="11.2988" width="3.55078" height="3.55078" fill="#C8254B"/>
<rect x="47.9277" y="17.1367" width="3.55078" height="3.55078" fill="#C8254B"/>
<rect x="47.9277" y="22.9746" width="3.55078" height="3.55078" fill="#C8254B"/>
<path d="M2 55.2243L2.00005 9.80654H25.8089V16.8329V23.9096H36.5242V1H56.7658H57V57" stroke="#C8234A" stroke-width="1.9"/>
<defs>
<clipPath id="clip0_84_3844">
<rect width="57" height="32" fill="white" transform="translate(0.648438 24.75)"/>
</clipPath>
</defs>
</svg>
